<?xml version="1.0" standalone="no"?>
<!DOCTYPE svg PUBLIC "-//W3C//DTD SVG 1.1//EN" "http://www.w3.org/Graphics/SVG/1.1/DTD/svg11.dtd" >
<svg>
<metadata>
Created by FontForge 20090914 at Wed Dec 14 03:58:37 2016
 By www-data
Copyright 1990 as an unpublished work by Bitstream Inc.  All rights reserved.  Confidential.
</metadata>
<defs>
<font id="BankGothicBT-Medium" horiz-adv-x="500" >
  <font-face 
    font-family="Bank Gothic"
    font-weight="500"
    font-stretch="normal"
    units-per-em="1000"
    panose-1="2 0 6 4 4 0 0 2 0 4"
    ascent="800"
    descent="-200"
    x-height="423"
    cap-height="516"
    bbox="-167 -236 1242 799.997"
    underline-thickness="70"
    underline-position="-48"
    unicode-range="U+0005-U+2122"
  />
<missing-glyph horiz-adv-x="387" 
 />
    <glyph glyph-name=".notdef" horiz-adv-x="387" 
 />
    <glyph glyph-name="breve" 
d="M104 634c3.33301 -48.667 16.833 -84.667 40.5 -108s58.834 -35 105.501 -35s81.5 11.667 104.5 35s36.167 59.333 39.5 108h-58c-1.33301 -25.333 -8.83301 -43.5 -22.5 -54.5s-34.834 -16.5 -63.501 -16.5s-50 5.5 -64 16.5s-21.667 29.167 -23 54.5h-59z" />
    <glyph glyph-name="dotaccent" 
d="M198 499h105v117h-105v-117z" />
    <glyph glyph-name="ring" 
d="M125 594c0 -18 3.16699 -34.667 9.5 -50s15.166 -28.666 26.499 -39.999s24.666 -20.166 39.999 -26.499s31.666 -9.5 48.999 -9.5s33.666 3.16699 48.999 9.5s28.666 15.166 39.999 26.499s20.333 24.666 27 39.999s10 32 10 50c0 17.333 -3.33301 33.666 -10 48.999
s-15.667 28.666 -27 39.999s-24.666 20.333 -39.999 27s-31.666 10 -48.999 10s-33.666 -3.33301 -48.999 -10s-28.666 -15.667 -39.999 -27s-20.166 -24.666 -26.499 -39.999s-9.5 -31.666 -9.5 -48.999zM188 594c0 17.333 6.16699 32 18.5 44s27.166 18 44.499 18
s32 -6 44 -18s18 -26.667 18 -44s-6 -32.166 -18 -44.499s-26.667 -18.5 -44 -18.5s-32.166 6.16699 -44.499 18.5s-18.5 27.166 -18.5 44.499z" />
    <glyph glyph-name="hungarumlaut" unicode="&#xa;" 
d="M199 478l106 169h-92l-65 -169h51zM276 478h51l124 169h-96z" />
    <glyph glyph-name="ogonek" 
d="M299 0h-42.999c-30 -23.333 -52.667 -45.5 -68 -66.5s-23 -42.5 -23 -64.5c0 -30.667 9.16699 -53 27.5 -67s46.5 -21 84.5 -21h47v76h-45c-16 0 -27.167 3 -33.5 9s-9.5 16 -9.5 30c0 18.667 5.16699 36.167 15.5 52.5s26.166 33.5 47.499 51.5z" />
    <glyph glyph-name="caron" 
d="M105 647l92 -170h106l92 170h-64l-81 -102l-82 102h-63z" />
    <glyph glyph-name="dotlessi" unicode="&#xd;" horiz-adv-x="291" 
d="M94 0h103v423h-103v-423z" />
    <glyph glyph-name="fraction" horiz-adv-x="167" 
d="M333 532h-64l-436 -548h65z" />
    <glyph glyph-name="fi" horiz-adv-x="841" 
d="M94 0h104v158h186v79h-186v110h345v76h-449v-423zM644 0h103v423h-103v-423z" />
    <glyph glyph-name="fl" horiz-adv-x="1102" 
d="M94 0h104v158h186v79h-186v110h345v76h-449v-423zM644 0h436v79h-332v344h-104v-423z" />
    <glyph glyph-name="Lslash" horiz-adv-x="683" 
d="M132 0h507v97h-387v116l158 110v106l-158 -110v197h-120v-269l-78 -54v-104l78 54v-143z" />
    <glyph glyph-name="lslash" horiz-adv-x="552" 
d="M94 0h436v79h-332v93l143 100v88l-143 -101v164h-104v-225l-67 -47v-86l67 48v-113z" />
    <glyph glyph-name="Zcaron" horiz-adv-x="682" 
d="M61 0h554v97h-366l366 368v51h-518v-92h325l-361 -368v-56zM196 740l92 -170h106l92 170h-64l-81 -102l-82 102h-63z" />
    <glyph glyph-name="zcaron" horiz-adv-x="616" 
d="M70 0h477v78h-316l316 303v42h-446v-76h279l-310 -301v-46zM163 647l92 -170h106l92 170h-64l-81 -102l-82 102h-63z" />
    <glyph glyph-name="space" unicode=" " horiz-adv-x="387" 
 />
    <glyph glyph-name="space" unicode="&#xa0;" horiz-adv-x="387" 
 />
    <glyph glyph-name="exclam" unicode="!" horiz-adv-x="384" 
d="M151 210h80l37 306h-154zM226 143l-70.999 -0.000976562c-16.667 0 -27.834 -1.5 -33.501 -4.5s-8.5 -12.833 -8.5 -29.5v-75c0 -12 1.5 -20.667 4.5 -26s9.83301 -8 20.5 -8h17h71c8 0 14.833 0.166992 20.5 0.5s10 1.5 13 3.5s5.16699 5.33301 6.5 10
s2 11.334 2 20.001v75c0 12 -1.5 20.667 -4.5 26s-9.83301 8 -20.5 8h-17z" />
    <glyph glyph-name="quotedbl" unicode="&#x22;" horiz-adv-x="300" 
d="M112 701h-68v-271h68v271zM256 701h-68v-271h68v271z" />
    <glyph glyph-name="numbersign" unicode="#" horiz-adv-x="769" 
d="M451 712h-81l-79 -222h-162l-25 -71h161l-45 -129h-151l-26 -71h151l-78 -221h81l79 221h126l-79 -221h81l79 221h157l25 71h-157l45 129h148l25 71h-147l78 222h-80l-80 -222h-125zM473 419l-45 -129h-127l45 129h127z" />
    <glyph glyph-name="dollar" unicode="$" horiz-adv-x="773" 
d="M572 442l0.000976562 -71l94 21v23c0 38.667 -10.333 65.167 -31 79.5s-53 21.5 -97 21.5h-103v102h-83v-102h-107c-24 0 -44.167 -1.83301 -60.5 -5.5s-29.5 -10 -39.5 -19s-17.167 -21.5 -21.5 -37.5s-6.5 -36 -6.5 -60v-57c0 -24 2.16699 -44 6.5 -60
s11.5 -28.5 21.5 -37.5s23.167 -15.333 39.5 -19s36.5 -5.5 60.5 -5.5h107v-137h-155v69l-100 -17v-22c0 -21.333 2.5 -39 7.5 -53s12.667 -25 23 -33s23.666 -13.667 39.999 -17s35.5 -5 57.5 -5h127v-130h83v130h112c24 -0 44.333 1.83301 61 5.5s30 10 40 19
s17.167 21.5 21.5 37.5s6.5 36 6.5 60v61c0 24 -2.16699 44 -6.5 60s-11.5 28.5 -21.5 37.5s-23.333 15.333 -40 19s-37 5.5 -61 5.5h-112v137h137zM352.001 305h-144v137h144v-137zM435.001 78v137h149v-137h-149z" />
    <glyph glyph-name="percent" unicode="%" horiz-adv-x="799" 
d="M44 380c0 -21.333 4.16699 -41.3301 12.5 -59.9971s19.5 -35 33.5 -49s30.333 -25.167 49 -33.5s38.334 -12.5 59.001 -12.5s40.167 4.16699 58.5 12.5s34.5 19.5 48.5 33.5s25.167 30.333 33.5 49s12.5 38.667 12.5 60s-4 41.166 -12 59.499s-18.833 34.333 -32.5 48
s-29.834 24.5 -48.501 32.5s-38.667 12 -60 12s-41.333 -3.83301 -60 -11.5s-35 -18.334 -49 -32.001s-25 -29.834 -33 -48.501s-12 -38.667 -12 -60zM112 378.003c0 23.333 8.33203 43.501 24.999 60.501s36.667 25.5 60 25.5c12 0 23.167 -2.33301 33.5 -7
s19.333 -10.834 27 -18.501s13.834 -16.667 18.501 -27s7 -21.5 7 -33.5c0 -23.333 -8.33301 -43.333 -25 -60s-37 -25 -61 -25c-12 0 -23.167 2.33301 -33.5 7s-19.333 10.834 -27 18.501s-13.667 16.667 -18 27s-6.5 21.166 -6.5 32.499zM514.999 137.004
c0 23.333 8.33203 43.501 24.999 60.501s36.667 25.5 60 25.5c12 0 23.167 -2.33301 33.5 -7s19.333 -10.834 27 -18.501s13.834 -16.667 18.501 -27s7 -21.5 7 -33.5c0 -23.333 -8.33301 -43.333 -25 -60s-37 -25 -61 -25c-12 0 -23.167 2.33301 -33.5 7
s-19.333 10.834 -27 18.501s-13.667 16.667 -18 27s-6.5 21.166 -6.5 32.499zM446.998 138.005c0 -21.333 3.99902 -41.333 11.999 -60s19 -35 33 -49s30.333 -25 49 -33s38.334 -12 59.001 -12s40.334 4 59.001 12s35 19 49 33s25.167 30.333 33.5 49s12.5 38.667 12.5 60
s-4 41.333 -12 60s-19 34.834 -33 48.501s-30.333 24.5 -49 32.5s-38.667 12 -60 12s-41.333 -4 -60 -12s-34.834 -18.833 -48.501 -32.5s-24.5 -29.834 -32.5 -48.501s-12 -38.667 -12 -60zM648.997 532.005h-65l-435 -548h65z" />
    <glyph glyph-name="ampersand" unicode="&#x26;" horiz-adv-x="824" 
d="M219 0l184 -0.00195312c10.667 0 20.167 0.333008 28.5 1s16.166 2 23.499 4s14.666 5 21.999 9s15 9.66699 23 17l46 41l85 -72h157l-163 137l119 99l-68 59l-120 -100l-243 202v37h169v-69l93 16v31c0 20.667 -2.33301 37.834 -7 51.501s-12 24.334 -22 32.001
s-23.167 13 -39.5 16s-36.166 4.5 -59.499 4.5h-104c-44 0 -76.333 -6.5 -97 -19.5s-31 -37.833 -31 -74.5v-29c0 -15.333 3.5 -29 10.5 -41s18.167 -24.333 33.5 -37l-105 -63c-11.333 -6.66699 -21 -13 -29 -19s-14.667 -12.5 -20 -19.5s-9.16602 -15 -11.499 -24
s-3.5 -20.167 -3.5 -33.5v-34c0 -24 2.16699 -44 6.5 -60s11.5 -28.5 21.5 -37.5s23.333 -15.333 40 -19s37 -5.5 61 -5.5zM191 89.998v88l132 82l155 -129l-48 -41h-239z" />
    <glyph glyph-name="quotesingle" unicode="'" horiz-adv-x="155" 
d="M112 701h-68v-271h68v271z" />
    <glyph glyph-name="parenleft" unicode="(" horiz-adv-x="331" 
d="M169 536c-57.333 -88.667 -86 -181.334 -86 -278.001s28.667 -189.334 86 -278.001h107c-64.667 96.667 -97 189.334 -97 278.001s32.333 181.334 97 278.001h-107z" />
    <glyph glyph-name="parenright" unicode=")" horiz-adv-x="331" 
d="M162 536l-107 0.00195312c64.667 -96.667 97 -189.334 97 -278.001s-32.333 -181.334 -97 -278.001h107c58 90 87 182.667 87 278s-29 188 -87 278z" />
    <glyph glyph-name="asterisk" unicode="*" 
d="M250 321l66 -120l58 43l-94 100l134 26l-23 68l-123 -59l15 137h-66l14 -137l-123 59l-22 -68l133 -26l-94 -100l59 -43z" />
    <glyph glyph-name="plus" unicode="+" horiz-adv-x="833" 
d="M451 596h-69v-264h-258v-68h258v-264h69v264h258v68h-258v264z" />
    <glyph glyph-name="comma" unicode="," horiz-adv-x="331" 
d="M201 155l-72 -0.000976562c-8.66699 0 -15.667 -0.166992 -21 -0.5s-9.5 -1.66602 -12.5 -3.99902s-5 -6 -6 -11s-1.5 -12.167 -1.5 -21.5v-62c0 -12.667 1.5 -22 4.5 -28s9.5 -9 19.5 -9h17h40l-85 -152h59l99 148v103c0 12.667 -1.5 22 -4.5 28s-9.5 9 -19.5 9h-17z
" />
    <glyph glyph-name="hyphen" unicode="-" horiz-adv-x="330" 
d="M48 215h233v103h-233v-103z" />
    <glyph glyph-name="period" unicode="." horiz-adv-x="331" 
d="M201 155h-71c-8.66699 0 -15.667 -0.166992 -21 -0.5s-9.5 -1.66602 -12.5 -3.99902s-5.16699 -6 -6.5 -11s-2 -12.167 -2 -21.5v-81c0 -12.667 1.5 -22 4.5 -28s9.5 -9 19.5 -9h18h71c8.66699 0 15.667 0.166992 21 0.5s9.5 1.66602 12.5 3.99902s5.16699 6 6.5 11
s2 12.167 2 21.5v81c0 12.667 -1.5 22 -4.5 28s-9.5 9 -19.5 9h-18z" />
    <glyph glyph-name="slash" unicode="/" horiz-adv-x="278" 
d="M-24 -16h64l262 548h-66z" />
    <glyph glyph-name="zero" unicode="0" horiz-adv-x="773" 
d="M94 394v-272c0 -24 1.83301 -43.833 5.5 -59.5s10 -28.167 19 -37.5s21.167 -15.833 36.5 -19.5s34.333 -5.5 57 -5.5h349c22.667 -0 41.667 1.83301 57 5.5s27.5 10.167 36.5 19.5s15.333 21.833 19 37.5s5.5 35.5 5.5 59.5v272c0 24 -1.83301 43.833 -5.5 59.5
s-10 28.167 -19 37.5s-21.167 15.833 -36.5 19.5s-34.333 5.5 -57 5.5h-349c-22.667 0 -41.667 -1.83301 -57 -5.5s-27.5 -10.167 -36.5 -19.5s-15.333 -21.833 -19 -37.5s-5.5 -35.5 -5.5 -59.5zM202 93v335h369v-335h-369z" />
    <glyph glyph-name="one" unicode="1" horiz-adv-x="773" 
d="M354 0h109v520l-219 -33v-69h110v-418z" />
    <glyph glyph-name="two" unicode="2" horiz-adv-x="773" 
d="M140 415l0.000976562 -67l102 -26v106h294v-67l-357 -220c-15.333 -9.33301 -27.333 -17.833 -36 -25.5s-15.167 -15.167 -19.5 -22.5s-7 -14.666 -8 -21.999s-1.5 -15.333 -1.5 -24v-47h434c22 0 40.5 1.33301 55.5 4s27.167 7.83398 36.5 15.501s16 18 20 31
s6 29.833 6 50.5v41l-95 27v-76h-300l303 184c12 7.33301 22.333 14.166 31 20.499s15.667 13.166 21 20.499s9.16602 16 11.499 26s3.5 22.667 3.5 38v33c0 20.667 -2 37.5 -6 50.5s-10.667 23.167 -20 30.5s-21.5 12.5 -36.5 15.5s-33.5 4.5 -55.5 4.5h-265
c-22 0 -40.5 -1.5 -55.5 -4.5s-27.167 -8.16699 -36.5 -15.5s-16 -17.5 -20 -30.5s-6 -29.833 -6 -50.5z" />
    <glyph glyph-name="three" unicode="3" horiz-adv-x="773" 
d="M228 0h299.998c24.667 0 45 2 61 6s28.833 10.5 38.5 19.5s16.334 20.5 20.001 34.5s5.5 31 5.5 51v54c0 32.667 -9.66699 57.334 -29 74.001s-49.666 27 -90.999 31c37.333 6 63.333 16.167 78 30.5s22 36.833 22 67.5v47c0 20.667 -2 37.5 -6 50.5
s-10.667 23.167 -20 30.5s-21.5 12.5 -36.5 15.5s-33.5 4.5 -55.5 4.5h-279c-22 0 -40.5 -1.5 -55.5 -4.5s-27.167 -8.16699 -36.5 -15.5s-16 -17.5 -20 -30.5s-6 -29.833 -6 -50.5v-32l102 -19v64h255c20 0 33.167 -3.16699 39.5 -9.5s9.5 -18.833 9.5 -37.5v-26
c0 -18.667 -3.16699 -31.167 -9.5 -37.5s-19.5 -9.5 -39.5 -9.5h-155v-84h174c20 0 33.333 -3.16699 40 -9.5s10 -18.833 10 -37.5v-38c0 -18.667 -3.33301 -31 -10 -37s-20 -9 -40 -9h-278v72l-106 -22v-42c0 -20.667 2 -37.5 6 -50.5s10.667 -23.333 20 -31
s21.5 -12.834 36.5 -15.501s33.5 -4 55.5 -4z" />
    <glyph glyph-name="four" unicode="4" horiz-adv-x="773" 
d="M472 200h-282l282 231v-231zM472 -6h109v120h125v86h-125v322h-113l-387 -322v-86h391v-120z" />
    <glyph glyph-name="five" unicode="5" horiz-adv-x="773" 
d="M130 230c58 7.33301 110 12.667 156 16s87 5 123 5c57.333 0 99.833 -5.66699 127.5 -17s41.5 -32.333 41.5 -63c0 -32 -14 -54 -42 -66s-72.667 -18 -134 -18c-44 0 -88.5 2.33301 -133.5 7s-91.167 11.334 -138.5 20.001l26 -100
c28 -6.66699 62.5 -11.834 103.5 -15.501s89.5 -5.5 145.5 -5.5c96.667 0 168.167 13.167 214.5 39.5s69.5 70.833 69.5 133.5c0 116.667 -85.333 175 -256 175c-30.667 0 -63.167 -1.16699 -97.5 -3.5s-71.5 -5.5 -111.5 -9.5l12 100h360l9 88h-446z" />
    <glyph glyph-name="six" unicode="6" horiz-adv-x="773" 
d="M230 311c10 27.333 24.165 49.6641 42.498 66.9971s41.333 30.833 69 40.5s60.167 16.334 97.5 20.001s80 5.5 128 5.5h33l-71 83c-6 0.666992 -12.167 1.16699 -18.5 1.5s-12.5 0.5 -18.5 0.5c-60.667 0 -114.667 -6.66699 -162 -20s-87.166 -33 -119.499 -59
s-57 -57.667 -74 -95s-25.5 -80 -25.5 -128v-68c0 -30.667 2.83301 -56.167 8.5 -76.5s15.167 -36.666 28.5 -48.999s30.833 -21 52.5 -26s48.5 -7.5 80.5 -7.5h218c60.667 0 105.334 10 134.001 30s43 52 43 96v70c0 26 -4 47.667 -12 65s-20.667 31 -38 41
s-39.833 17 -67.5 21s-61.167 6 -100.5 6c-40 0 -79 -1.66699 -117 -5s-75 -7.66602 -111 -12.999zM222.998 232.998c78.667 8 155.001 12 229.001 12c43.333 0 73.166 -4 89.499 -12s24.5 -24.667 24.5 -50v-28c0 -11.333 -1.5 -21 -4.5 -29s-8 -14.5 -15 -19.5
s-16.5 -8.5 -28.5 -10.5s-27.333 -3 -46 -3h-144c-24.667 0 -44.167 1.5 -58.5 4.5s-25 8.5 -32 16.5s-11.5 19.167 -13.5 33.5s-3 32.833 -3 55.5v13c0 5.33301 0.666992 11 2 17z" />
    <glyph glyph-name="seven" unicode="7" horiz-adv-x="773" 
d="M278 -9h131l270 442v83h-573v-180l109 -19v111h341z" />
    <glyph glyph-name="eight" unicode="8" horiz-adv-x="773" 
d="M518 224c20 0 33.167 -3.16699 39.5 -9.5s9.5 -18.833 9.5 -37.5v-38c0 -18.667 -3.16699 -31 -9.5 -37s-19.5 -9 -39.5 -9h-264c-20 0 -33.167 2.83301 -39.5 8.5s-9.5 18.167 -9.5 37.5v38c0 18.667 3.16699 31.167 9.5 37.5s19.5 9.5 39.5 9.5h264zM507 428
c20 0 33.167 -3.16699 39.5 -9.5s9.5 -18.833 9.5 -37.5v-26c0 -18.667 -3.16699 -31.167 -9.5 -37.5s-19.5 -9.5 -39.5 -9.5h-241c-20 0 -33.333 3.16699 -40 9.5s-10 18.833 -10 37.5v26c0 18.667 3.33301 31.167 10 37.5s20 9.5 40 9.5h241zM547 516h-322
c-22 0 -40.5 -1.5 -55.5 -4.5s-27.167 -8.16699 -36.5 -15.5s-16 -17.5 -20 -30.5s-6 -29.833 -6 -50.5v-47c0 -30 7.5 -52.333 22.5 -67s40.5 -25.667 76.5 -33c-37.333 -4 -65 -14.167 -83 -30.5s-27 -40.5 -27 -72.5v-54c0 -20 1.83301 -37 5.5 -51
s10.334 -25.5 20.001 -34.5s22.5 -15.5 38.5 -19.5s36.333 -6 61 -6h330c24.667 0 45.167 2 61.5 6s29.166 10.5 38.499 19.5s16 20.5 20 34.5s6 31 6 51v54c0 32 -9 56.167 -27 72.5s-45.667 26.5 -83 30.5c36 7.33301 61.333 18.333 76 33s22 37 22 67v47
c0 20.667 -2 37.5 -6 50.5s-10.667 23.167 -20 30.5s-21.5 12.5 -36.5 15.5s-33.5 4.5 -55.5 4.5z" />
    <glyph glyph-name="nine" unicode="9" horiz-adv-x="773" 
d="M559 284c-44.667 -4.66699 -85.999 -8 -123.999 -10s-72.667 -3 -104 -3c-22 0 -40.333 0.833008 -55 2.5s-26.5 4.83398 -35.5 9.50098s-15.333 11.167 -19 19.5s-5.5 19.166 -5.5 32.499v29c0 12 1.5 22 4.5 30s8.16699 14.5 15.5 19.5s17 8.66699 29 11
s27.333 3.5 46 3.5h143c24.667 0 44.167 -1.5 58.5 -4.5s25.166 -8.66699 32.499 -17s12 -19.833 14 -34.5s3 -33.667 3 -57c0 -8.66699 -1 -19 -3 -31zM553.001 205c-10 -27.333 -24.166 -49.665 -42.499 -66.998s-41.333 -30.833 -69 -40.5
s-60.334 -16.334 -98.001 -20.001s-80.5 -5.5 -128.5 -5.5h-33l71 -83c6 -0.666992 12 -1 18 -1h19c60.667 0 114.5 6.66699 161.5 20s86.833 32.833 119.5 58.5s57.5 57.167 74.5 94.5s25.5 80 25.5 128v68c0 30.667 -2.83301 56.167 -8.5 76.5
s-15.167 36.666 -28.5 48.999s-30.833 21 -52.5 26s-48.5 7.5 -80.5 7.5h-218c-60.667 0 -105.167 -10 -133.5 -30s-42.5 -52 -42.5 -96v-69c0 -26 4 -47.667 12 -65s20.667 -31 38 -41s39.833 -17 67.5 -21s61.167 -6 100.5 -6c40 0 79 1.5 117 4.5s75 7.16699 111 12.5z
" />
    <glyph glyph-name="colon" unicode=":" horiz-adv-x="331" 
d="M201 155h-71c-8.66699 0 -15.667 -0.166992 -21 -0.5s-9.5 -1.66602 -12.5 -3.99902s-5.16699 -6 -6.5 -11s-2 -12.167 -2 -21.5v-81c0 -12.667 1.5 -22 4.5 -28s9.5 -9 19.5 -9h18h71c8.66699 0 15.667 0.166992 21 0.5s9.5 1.66602 12.5 3.99902s5.16699 6 6.5 11
s2 12.167 2 21.5v81c0 12.667 -1.5 22 -4.5 28s-9.5 9 -19.5 9h-18zM201 424h-71c-8.66699 0 -15.667 -0.166992 -21 -0.5s-9.5 -1.66602 -12.5 -3.99902s-5.16699 -6 -6.5 -11s-2 -12.167 -2 -21.5v-81c0 -12.667 1.5 -22 4.5 -28s9.5 -9 19.5 -9h18h71
c8.66699 0 15.667 0.166992 21 0.5s9.5 1.66602 12.5 3.99902s5.16699 6 6.5 11s2 12.167 2 21.5v81c0 12.667 -1.5 22 -4.5 28s-9.5 9 -19.5 9h-18z" />
    <glyph glyph-name="semicolon" unicode=";" horiz-adv-x="331" 
d="M201 155l-72 -0.000976562c-8.66699 0 -15.667 -0.166992 -21 -0.5s-9.5 -1.66602 -12.5 -3.99902s-5 -6 -6 -11s-1.5 -12.167 -1.5 -21.5v-62c0 -12.667 1.5 -22 4.5 -28s9.5 -9 19.5 -9h17h40l-85 -152h59l99 148v103c0 12.667 -1.5 22 -4.5 28s-9.5 9 -19.5 9h-17z
M201 423.999h-72c-8.66699 0 -15.667 -0.166992 -21 -0.5s-9.5 -1.66602 -12.5 -3.99902s-5 -6 -6 -11s-1.5 -12.167 -1.5 -21.5v-81c0 -12.667 1.5 -22 4.5 -28s9.5 -9 19.5 -9h17h72c8.66699 0 15.667 0.166992 21 0.5s9.5 1.66602 12.5 3.99902s5 6 6 11
s1.5 12.167 1.5 21.5v81c0 12.667 -1.5 22 -4.5 28s-9.5 9 -19.5 9h-17z" />
    <glyph glyph-name="less" unicode="&#x3c;" horiz-adv-x="833" 
d="M704 491v75l-575 -236v-63l575 -236v75l-473 192z" />
    <glyph glyph-name="equal" unicode="=" horiz-adv-x="833" 
d="M709 429h-585v-68h585v68zM709 235h-585v-68h585v68z" />
    <glyph glyph-name="greater" unicode="&#x3e;" horiz-adv-x="833" 
d="M704 330l-575 236v-75l474 -193l-474 -192v-75l575 236v63z" />
    <glyph glyph-name="question" unicode="?" horiz-adv-x="662" 
d="M264 209l103 0.000976562v27l175 102v82c0 33.333 -10.167 57.666 -30.5 72.999s-51.5 23 -93.5 23h-204c-72 0 -108 -35.333 -108 -106v-28l101 -16v65h230v-45l-173 -105v-72zM350 143.001l-71.999 -0.000976562c-16.667 0 -27.667 -1.5 -33 -4.5s-8 -12.833 -8 -29.5
v-75c0 -12 1.5 -20.667 4.5 -26s9.83301 -8 20.5 -8h16h72c8 0 14.667 0.166992 20 0.5s9.5 1.5 12.5 3.5s5.16699 5.33301 6.5 10s2 11.334 2 20.001v75c0 12 -1.33301 20.667 -4 26s-9.33398 8 -20.001 8h-17z" />
    <glyph glyph-name="at" unicode="@" horiz-adv-x="1000" 
d="M581 232c-9.33301 -36.667 -26.499 -66.0029 -51.499 -88.0029s-53.167 -33 -84.5 -33c-29.333 0 -51.833 9.16699 -67.5 27.5s-23.5 44.833 -23.5 79.5c0 30.667 4 59.334 12 86.001s19.167 49.834 33.5 69.501s31.166 35.167 50.499 46.5s40.333 17 63 17
c25.333 0 46.5 -7.66699 63.5 -23s28.167 -37.666 33.5 -66.999zM627.001 416.997c-23.333 48.667 -62.6641 73.0029 -117.997 73.0029c-32.667 0 -63.167 -6.83301 -91.5 -20.5s-53 -32.5 -74 -56.5s-37.5 -52.5 -49.5 -85.5s-18 -68.833 -18 -107.5
c0 -52.667 13 -92.834 39 -120.501s64 -41.5 114 -41.5c62.667 0 111.667 28.333 147 85v-9c0 -51.333 32.667 -77 98 -77c27.333 0 54.166 4.66699 80.499 14s50.833 23 73.5 41c40 31.333 70.167 69.666 90.5 114.999s30.5 96.666 30.5 153.999c0 50 -11 96.167 -33 138.5
s-54 79.833 -96 112.5c-33.333 25.333 -73.5 45.666 -120.5 60.999s-98.5 23 -154.5 23c-82.667 0 -157.167 -15 -223.5 -45s-123.166 -74 -170.499 -132c-32.667 -40 -57.334 -83.833 -74.001 -131.5s-25 -98.5 -25 -152.5c0 -128 49.667 -230.333 149 -307
c80 -60.667 182.333 -91 307 -91c119.333 0 227.333 36.333 324 109l-27 40c-43.333 -30 -90.833 -53 -142.5 -69s-105.167 -24 -160.5 -24c-51.333 0 -98.833 7 -142.5 21s-81.5 33 -113.5 57c-42.667 32.667 -74 70.167 -94 112.5s-30 92.5 -30 150.5
c0 73.333 17 140 51 200s82.333 108.667 145 146s137 56 223 56c51.333 0 97.666 -7 138.999 -21s76.666 -33.5 105.999 -58.5s52 -55 68 -90s24 -73.167 24 -114.5s-7.5 -79.833 -22.5 -115.5s-35.167 -65.5 -60.5 -89.5c-17.333 -16.667 -34.833 -29.167 -52.5 -37.5
s-34.167 -12.5 -49.5 -12.5c-32.667 0 -49 15.333 -49 46c0 8.66699 1.33301 18.334 4 29.001l71 281h-64z" />
    <glyph glyph-name="A" unicode="A" horiz-adv-x="771" 
d="M33 0h120l60 113h327l62 -113h135l-296 516h-116zM264 206l115 210l111 -210h-226z" />
    <glyph glyph-name="B" unicode="B" horiz-adv-x="794" 
d="M132 0h410c101.333 0 152 33.667 152 101v66c0 28 -8 50.5 -24 67.5s-39 27.5 -69 31.5c28.667 3.33301 50.667 12.333 66 27s23 34.667 23 60v63c0 36 -9.33301 61.667 -28 77s-48 23 -88 23h-442v-516zM524 224c20.667 0 35.5 -2.83301 44.5 -8.5
s13.5 -18.167 13.5 -37.5v-39c0 -19.333 -4.5 -31.833 -13.5 -37.5s-23.833 -8.5 -44.5 -8.5h-274v131h274zM524 432c18.667 0 32.5 -2.33301 41.5 -7s13.5 -14.667 13.5 -30v-49c0 -15.333 -4.5 -25.333 -13.5 -30s-22.833 -7 -41.5 -7h-274v123h274z" />
    <glyph glyph-name="C" unicode="C" horiz-adv-x="801" 
d="M565 424v-98l120 19v49c0 24 -2.16699 44 -6.5 60s-11.5 28.5 -21.5 37.5s-23.167 15.333 -39.5 19s-36.5 5.5 -60.5 5.5h-308c-24 0 -44.167 -1.83301 -60.5 -5.5s-29.5 -10 -39.5 -19s-17.167 -21.5 -21.5 -37.5s-6.5 -36 -6.5 -60v-272c0 -24 2.16699 -44 6.5 -60
s11.5 -28.5 21.5 -37.5s23.167 -15.333 39.5 -19s36.5 -5.5 60.5 -5.5h308c24 -0 44.167 1.83301 60.5 5.5s29.5 10 39.5 19s17.167 21.5 21.5 37.5s6.5 36 6.5 60v61l-120 25v-111h-324v327h324z" />
    <glyph glyph-name="D" unicode="D" horiz-adv-x="847" 
d="M132 0l301 -0.000976562c46 0 86.5 2.83301 121.5 8.5s65.167 16.167 90.5 31.5c36 22 64 52.167 84 90.5s30 81.833 30 130.5c0 80.667 -24.833 143.334 -74.5 188.001s-123.167 67 -220.5 67h-332v-516zM252 96.999v327h213c56.667 0 99.167 -13.667 127.5 -41
s42.5 -67.333 42.5 -120c0 -32 -4.83301 -58.667 -14.5 -80s-24 -38.333 -43 -51s-42.667 -21.667 -71 -27s-61.5 -8 -99.5 -8h-155z" />
    <glyph glyph-name="E" unicode="E" horiz-adv-x="755" 
d="M132 0h533v97h-413v128h238v88h-238v115h408v88h-528v-516z" />
    <glyph glyph-name="F" unicode="F" horiz-adv-x="671" 
d="M132 0h120v196h217v94h-217v136h402v90h-522v-516z" />
    <glyph glyph-name="G" unicode="G" horiz-adv-x="855" 
d="M616 424l-0.000976562 -58l117 21v12c0 23.333 -2.33301 42.5 -7 57.5s-12 27 -22 36s-23.167 15.167 -39.5 18.5s-36.166 5 -59.499 5h-356c-24 0 -44.167 -1.83301 -60.5 -5.5s-29.5 -10 -39.5 -19s-17.167 -21.5 -21.5 -37.5s-6.5 -36 -6.5 -60v-272
c0 -24 2.16699 -44 6.5 -60s11.5 -28.5 21.5 -37.5s23.167 -15.333 39.5 -19s36.5 -5.5 60.5 -5.5h356c24 -0 44.167 1.83301 60.5 5.5s29.5 10 39.5 19s17.167 21.5 21.5 37.5s6.5 36 6.5 60v178h-313v-88h196v-115h-375v327h375z" />
    <glyph glyph-name="H" unicode="H" horiz-adv-x="880" 
d="M132 0h120v222h375v-222h121v516h-121v-200h-375v200h-120v-516z" />
    <glyph glyph-name="I" unicode="I" horiz-adv-x="384" 
d="M132 0h120v516h-120v-516z" />
    <glyph glyph-name="J" unicode="J" horiz-adv-x="667" 
d="M207 0h221c24 -0 44.167 1.83301 60.5 5.5s29.5 10 39.5 19s17.167 21.5 21.5 37.5s6.5 36 6.5 60v394h-120v-419h-236v155l-121 -23v-107c0 -24 2.16699 -44 6.5 -60s11.5 -28.5 21.5 -37.5s23.167 -15.333 39.5 -19s36.5 -5.5 60.5 -5.5z" />
    <glyph glyph-name="K" unicode="K" horiz-adv-x="794" 
d="M132 0h121v227l309 -227h193l-384 273l342 243h-174l-286 -215v215h-121v-516z" />
    <glyph glyph-name="L" unicode="L" horiz-adv-x="683" 
d="M132 0h507v97h-387v419h-120v-516z" />
    <glyph glyph-name="M" unicode="M" horiz-adv-x="926" 
d="M131 0l97 0.00195312v319c0 15.333 -1 33.666 -3 54.999c4 -10 8.66699 -19.333 14 -28s11 -17 17 -25l194 -259h24l194 258c4.66699 6 9.5 13.667 14.5 23s10.167 19.666 15.5 30.999c-1.33301 -13.333 -2.33301 -24.5 -3 -33.5s-1 -16.167 -1 -21.5v-319h111v516h-96
l-238 -312l-243 312h-97v-516z" />
    <glyph glyph-name="N" unicode="N" horiz-adv-x="869" 
d="M131 0h108.001v279c0 7.33301 -0.333008 17.833 -1 31.5s-2 30.5 -4 50.5c7.33301 -8 14.5 -15.333 21.5 -22l21.5 -20l379 -319h82v516h-108v-271c0 -8 0.5 -19.5 1.5 -34.5l3.5 -54.5c-9.33301 10.667 -18.833 20.5 -28.5 29.5s-19.834 17.833 -30.501 26.5l-363 304
h-82v-516z" />
    <glyph glyph-name="O" unicode="O" horiz-adv-x="878" 
d="M241 97v327h396v-327h-396zM121 394v-272c0 -24 2.16699 -44 6.5 -60s11.5 -28.5 21.5 -37.5s23.167 -15.333 39.5 -19s36.5 -5.5 60.5 -5.5h380c24 -0 44.167 1.83301 60.5 5.5s29.5 10 39.5 19s17.167 21.5 21.5 37.5s6.5 36 6.5 60v272c0 24 -2.16699 44 -6.5 60
s-11.5 28.5 -21.5 37.5s-23.167 15.333 -39.5 19s-36.5 5.5 -60.5 5.5h-380c-24 0 -44.167 -1.83301 -60.5 -5.5s-29.5 -10 -39.5 -19s-17.167 -21.5 -21.5 -37.5s-6.5 -36 -6.5 -60z" />
    <glyph glyph-name="P" unicode="P" horiz-adv-x="743" 
d="M132 0h118v201h324c40 0 69.333 7.66699 88 23s28 41 28 77v115c0 36 -9.33301 61.667 -28 77s-48 23 -88 23h-442v-516zM520 427c18.667 0 32.334 -2.5 41.001 -7.5s13 -16.167 13 -33.5v-55c0 -17.333 -4.33301 -28.5 -13 -33.5s-22.334 -7.5 -41.001 -7.5h-270v137
h270z" />
    <glyph glyph-name="Q" unicode="Q" horiz-adv-x="878" 
d="M241 97v327h396v-327h-110l-70 147l-87 -35l48 -112h-177zM121 394v-272c0 -24 2.16699 -44 6.5 -60s11.5 -28.5 21.5 -37.5s23.167 -15.333 39.5 -19s36.5 -5.5 60.5 -5.5h212l58 -133h119l-65 133h56c24 -0 44.167 1.83301 60.5 5.5s29.5 10 39.5 19
s17.167 21.5 21.5 37.5s6.5 36 6.5 60v272c0 24 -2.16699 44 -6.5 60s-11.5 28.5 -21.5 37.5s-23.167 15.333 -39.5 19s-36.5 5.5 -60.5 5.5h-380c-24 0 -44.167 -1.83301 -60.5 -5.5s-29.5 -10 -39.5 -19s-17.167 -21.5 -21.5 -37.5s-6.5 -36 -6.5 -60z" />
    <glyph glyph-name="R" unicode="R" horiz-adv-x="802" 
d="M132 0h118v195h114l208 -195h172l-238 195h68c40 0 69.333 7.66699 88 23s28 41 28 77v121c0 36 -9.33301 61.667 -28 77s-48 23 -88 23h-442v-516zM520 427c18.667 0 32.334 -2.5 41.001 -7.5s13 -16.167 13 -33.5v-62c0 -17.333 -4.33301 -28.5 -13 -33.5
s-22.334 -7.5 -41.001 -7.5h-270v144h270z" />
    <glyph glyph-name="S" unicode="S" horiz-adv-x="809" 
d="M579 426l-0.000976562 -59.001l106 25v11c0 22 -2.33301 40.333 -7 55s-12.167 26.334 -22.5 35.001s-23.666 14.667 -39.999 18s-35.833 5 -58.5 5h-293c-24 0 -44.167 -1.83301 -60.5 -5.5s-29.5 -10 -39.5 -19s-17.167 -21.5 -21.5 -37.5s-6.5 -36 -6.5 -60v-57
c0 -24 2.16699 -44 6.5 -60s11.5 -28.5 21.5 -37.5s23.167 -15.333 39.5 -19s36.5 -5.5 60.5 -5.5h322v-118h-365v61l-106 -22v-14c0 -24 2.16699 -44 6.5 -60s11.5 -28.5 21.5 -37.5s23.333 -15.333 40 -19s37 -5.5 61 -5.5h319c24 -0 44.333 1.83301 61 5.5s30 10 40 19
s17.167 21.5 21.5 37.5s6.5 36 6.5 60v71c0 24 -2.16699 44 -6.5 60s-11.5 28.5 -21.5 37.5s-23.333 15.333 -40 19s-37 5.5 -61 5.5h-322v111h338z" />
    <glyph glyph-name="T" unicode="T" horiz-adv-x="625" 
d="M372 424h238v92h-595v-92h237v-424h120v424z" />
    <glyph glyph-name="U" unicode="U" horiz-adv-x="846" 
d="M252 516h-120v-394c0 -24 2.16699 -44 6.5 -60s11.5 -28.5 21.5 -37.5s23.167 -15.333 39.5 -19s36.5 -5.5 60.5 -5.5h326c24 -0 44.167 1.83301 60.5 5.5s29.5 10 39.5 19s17.167 21.5 21.5 37.5s6.5 36 6.5 60v394h-120v-419h-342v419z" />
    <glyph glyph-name="V" unicode="V" horiz-adv-x="681" 
d="M306 0h83l284 516h-120l-199 -373l-209 373h-137z" />
    <glyph glyph-name="W" unicode="W" horiz-adv-x="926" 
d="M238 0h83l144 357l142 -357h81l199 516h-107l-125 -346l-140 346h-84l-137 -346l-131 346h-124z" />
    <glyph glyph-name="X" unicode="X" horiz-adv-x="718" 
d="M53 0h142l174 200l189 -200h163l-278 279l225 237h-138l-157 -175l-165 175h-159l249 -251z" />
    <glyph glyph-name="Y" unicode="Y" horiz-adv-x="672" 
d="M276 0h121v234l267 282h-141l-178 -198l-177 198h-160l268 -285v-231z" />
    <glyph glyph-name="Z" unicode="Z" horiz-adv-x="682" 
d="M61 0h554v97h-366l366 368v51h-518v-92h325l-361 -368v-56z" />
    <glyph glyph-name="bracketleft" unicode="[" horiz-adv-x="331" 
d="M315 -16v74h-125v403h125v71h-221v-548h221z" />
    <glyph glyph-name="backslash" unicode="\" horiz-adv-x="278" 
d="M42 532h-66l262 -548h64z" />
    <glyph glyph-name="bracketright" unicode="]" horiz-adv-x="331" 
d="M16 -16h221v548h-221v-71h125v-403h-125v-74z" />
    <glyph glyph-name="asciicircum" unicode="^" horiz-adv-x="1000" 
d="M545 712h-91l-249 -272h88l207 205l206 -205h88z" />
    <glyph glyph-name="underscore" unicode="_" 
d="M500 -166h-500v-70h500v70z" />
    <glyph glyph-name="grave" unicode="`" 
d="M322 478l-100 169h-108l144 -169h64z" />
    <glyph glyph-name="a" unicode="a" horiz-adv-x="646" 
d="M230 170l95 176l99 -176h-194zM30 0h103l53 93h280l53 -93h116l-255 423h-99z" />
    <glyph glyph-name="b" unicode="b" horiz-adv-x="657" 
d="M427 184c17.333 0 30 -2.5 38 -7.5s12 -15.167 12 -30.5v-32c0 -15.333 -4 -25.5 -12 -30.5s-20.667 -7.5 -38 -7.5h-231v108h231zM427 354c16 0 27.667 -1.83105 35 -5.49805s11 -11.834 11 -24.501v-40c0 -12.667 -3.83301 -20.834 -11.5 -24.501
s-19.167 -5.5 -34.5 -5.5h-231v100h231zM94 0.00195312l352.001 0.00195312c87.333 0 131 27.667 131 83v54c0 21.333 -6.5 39.166 -19.5 53.499s-31.5 23.5 -55.5 27.5c23.333 4 41.166 12.167 53.499 24.5s18.5 28.166 18.5 47.499v51c0 30 -8.16699 51.167 -24.5 63.5
s-41.5 18.5 -75.5 18.5h-380v-423z" />
    <glyph glyph-name="c" unicode="c" horiz-adv-x="644" 
d="M465 345v-78l104 15v41c0 20 -1.83301 36.5 -5.5 49.5s-9.83398 23.167 -18.501 30.5s-20.167 12.5 -34.5 15.5s-31.833 4.5 -52.5 4.5h-264c-21.333 0 -39 -1.5 -53 -4.5s-25.167 -8.33301 -33.5 -16s-14.333 -17.834 -18 -30.501s-5.5 -29 -5.5 -49v-223
c0 -19.333 1.66699 -35.5 5 -48.5s9.33301 -23.333 18 -31s20 -13 34 -16s31.667 -4.5 53 -4.5h264c20.667 0 38.167 1.5 52.5 4.5s25.833 8.33301 34.5 16s14.834 17.834 18.501 30.501s5.5 29 5.5 49v50l-104 21v-90h-278v264h278z" />
    <glyph glyph-name="d" unicode="d" horiz-adv-x="694" 
d="M94 0h259c186.667 0 280 71 280 213c0 66 -21.333 117.5 -64 154.5s-106 55.5 -190 55.5h-285v-423zM198 79l0.00195312 268h182c49.333 0 86.166 -10.5 110.499 -31.5s36.5 -53.5 36.5 -97.5c0 -27.333 -4 -50 -12 -68s-20.167 -32.333 -36.5 -43s-36.833 -18 -61.5 -22
s-53.334 -6 -86.001 -6h-133z" />
    <glyph glyph-name="e" unicode="e" horiz-adv-x="608" 
d="M94 0h459v79h-355v104h204v73h-204v92h350v75h-454v-423z" />
    <glyph glyph-name="f" unicode="f" horiz-adv-x="550" 
d="M94 0h104v158h186v79h-186v110h345v76h-449v-423z" />
    <glyph glyph-name="g" unicode="g" horiz-adv-x="692" 
d="M509 345l0.00195312 -45l101 17v11c0 38 -8.33301 63.333 -25 76s-45 19 -85 19h-306c-20.667 0 -38 -1.5 -52 -4.5s-25.333 -8.16699 -34 -15.5s-14.834 -17.5 -18.501 -30.5s-5.5 -29.5 -5.5 -49.5v-223c0 -20 1.83301 -36.333 5.5 -49s9.66699 -22.834 18 -30.501
s19.5 -13 33.5 -16s31.667 -4.5 53 -4.5h306c20.667 0 38.167 1.5 52.5 4.5s25.666 8.33301 33.999 16s14.333 17.834 18 30.501s5.5 29 5.5 49v146h-269v-75h168v-90h-322v264h322z" />
    <glyph glyph-name="h" unicode="h" horiz-adv-x="718" 
d="M94 0h104v178h322v-178h103v423h-103v-161h-322v161h-104v-423z" />
    <glyph glyph-name="i" unicode="i" horiz-adv-x="291" 
d="M94 0h103v423h-103v-423z" />
    <glyph glyph-name="j" unicode="j" horiz-adv-x="560" 
d="M166 0h187.998c20.667 0 38.167 1.5 52.5 4.5s25.833 8.33301 34.5 16s14.834 17.834 18.501 30.501s5.5 29 5.5 49v323h-104v-344h-202v128l-104 -19v-88c0 -20 1.83301 -36.333 5.5 -49s9.83398 -22.834 18.501 -30.501s20 -13 34 -16s31.667 -4.5 53 -4.5z" />
    <glyph glyph-name="k" unicode="k" horiz-adv-x="620" 
d="M94 0h104v191l266 -191h163l-325 227l292 196h-149l-247 -171v171h-104v-423z" />
    <glyph glyph-name="l" unicode="l" horiz-adv-x="552" 
d="M94 0h436v79h-332v344h-104v-423z" />
    <glyph glyph-name="m" unicode="m" horiz-adv-x="767" 
d="M94 0h83v284l191 -233h20l189 240v-291h96v423h-83l-206 -251l-207 251h-83v-423z" />
    <glyph glyph-name="n" unicode="n" horiz-adv-x="712" 
d="M94 0h94v285l358 -285h71v423h-93v-281l-359 281h-71v-423z" />
    <glyph glyph-name="o" unicode="o" horiz-adv-x="715" 
d="M84 323l0.000976562 -223c0 -20 1.83301 -36.5 5.5 -49.5s9.66699 -23.167 18 -30.5s19.5 -12.5 33.5 -15.5s31.667 -4.5 53 -4.5h327c20.667 0 38 1.5 52 4.5s25.333 8.16699 34 15.5s14.834 17.5 18.501 30.5s5.5 29.5 5.5 49.5v223c0 20 -1.83301 36.5 -5.5 49.5
s-9.83398 23.333 -18.501 31s-20 12.834 -34 15.501s-31.333 4 -52 4h-327c-20.667 0 -38 -1.33301 -52 -4s-25.333 -7.83398 -34 -15.501s-14.834 -18 -18.501 -31s-5.5 -29.5 -5.5 -49.5zM187.001 81v264h341v-264h-341z" />
    <glyph glyph-name="p" unicode="p" horiz-adv-x="628" 
d="M431 350c15.333 0 27 -2.16699 35 -6.5s12 -13.5 12 -27.5v-44c0 -14 -4 -23.167 -12 -27.5s-19.667 -6.5 -35 -6.5h-235v112h235zM94 0h102v165h279c34 0 59 6.16699 75 18.5s24 33.5 24 63.5v94c0 30 -8 51.167 -24 63.5s-41 18.5 -75 18.5h-381v-423z" />
    <glyph glyph-name="q" unicode="q" horiz-adv-x="715" 
d="M187 81v264h341v-264h-98l-58 119l-74 -28l44 -91h-155zM84 323l0.000976562 -222c0 -20 1.83301 -36.333 5.5 -49s9.66699 -22.834 18 -30.501s19.5 -13 33.5 -16s31.667 -4.5 53 -4.5h183l48 -109h103l-57 109h50c20.667 0 38 1.5 52 4.5s25.333 8.33301 34 16
s14.834 17.834 18.501 30.501s5.5 29 5.5 49v222c0 20.667 -1.83301 37.5 -5.5 50.5s-9.83398 23.167 -18.501 30.5s-20 12.333 -34 15s-31.333 4 -52 4h-327c-20.667 0 -38 -1.33301 -52 -4s-25.333 -7.66699 -34 -15s-14.834 -17.5 -18.501 -30.5s-5.5 -29.833 -5.5 -50.5
z" />
    <glyph glyph-name="r" unicode="r" horiz-adv-x="650" 
d="M94 0l102 0.000976562v160h97l177 -160h148l-201 160h58c34 0 59 6.16699 75 18.5s24 33.166 24 62.499v100c0 30 -8 51.167 -24 63.5s-41 18.5 -75 18.5h-381v-423zM431 350.001c15.333 0 27 -2.16699 35 -6.5s12 -13.5 12 -27.5v-49c0 -14 -4 -23.167 -12 -27.5
s-19.667 -6.5 -35 -6.5h-235v117h235z" />
    <glyph glyph-name="s" unicode="s" horiz-adv-x="663" 
d="M485 347v-45l89 19v10c0 36.667 -8.83301 61.167 -26.5 73.5s-45.834 18.5 -84.501 18.5h-251c-20.667 0 -38.167 -1.5 -52.5 -4.5s-25.833 -8.16699 -34.5 -15.5s-14.834 -17.5 -18.501 -30.5s-5.5 -29.5 -5.5 -49.5v-47c0 -20 1.83301 -36.5 5.5 -49.5
s9.83398 -23.167 18.501 -30.5s20.167 -12.5 34.5 -15.5s31.833 -4.5 52.5 -4.5h274v-97h-311v50l-92 -17v-12c0 -20 1.83301 -36.333 5.5 -49s9.83398 -22.834 18.501 -30.501s20 -13 34 -16s31.667 -4.5 53 -4.5h275c20.667 0 38.167 1.5 52.5 4.5
s25.666 8.33301 33.999 16s14.333 17.834 18 30.501s5.5 29 5.5 49v58c0 20 -1.83301 36.5 -5.5 49.5s-9.66699 23.167 -18 30.5s-19.666 12.5 -33.999 15.5s-31.833 4.5 -52.5 4.5h-275v89h291z" />
    <glyph glyph-name="t" unicode="t" horiz-adv-x="590" 
d="M346 347h205v76h-512v-76h204v-347h103v347z" />
    <glyph glyph-name="u" unicode="u" horiz-adv-x="689" 
d="M197 423h-103.001v-323c0 -20 1.83301 -36.333 5.5 -49s9.66699 -22.834 18 -30.501s19.5 -13 33.5 -16s31.667 -4.5 53 -4.5h280c20.667 0 38.167 1.5 52.5 4.5s25.833 8.33301 34.5 16s14.834 17.834 18.501 30.501s5.5 29 5.5 49v323h-104v-344h-294v344z" />
    <glyph glyph-name="v" unicode="v" horiz-adv-x="632" 
d="M292 0h71l245 423h-107l-169 -307l-179 307h-117z" />
    <glyph glyph-name="w" unicode="w" horiz-adv-x="789" 
d="M208 0h71l124 299l122 -299h70l170 423h-93l-109 -295l-118 295h-71l-119 -295l-111 295h-108z" />
    <glyph glyph-name="x" unicode="x" horiz-adv-x="638" 
d="M51 0h122l149 158l162 -158h141l-238 229l193 194h-119l-134 -137l-142 137h-138l213 -206z" />
    <glyph glyph-name="y" unicode="y" horiz-adv-x="593" 
d="M254 0h103v192l230 231h-121l-153 -158l-151 158h-139l231 -233v-190z" />
    <glyph glyph-name="z" unicode="z" horiz-adv-x="616" 
d="M70 0h477v78h-316l316 303v42h-446v-76h279l-310 -301v-46z" />
    <glyph glyph-name="braceleft" unicode="{" 
d="M423 648l0.000976562 73.001h-18c-30 0 -56 -1.66699 -78 -5s-41.333 -10 -58 -20c-22 -13.333 -35.667 -32.166 -41 -56.499s-8 -55.5 -8 -93.5v-120c0 -47.333 -8.66699 -81 -26 -101s-47.333 -30 -90 -30c-3.33301 0 -6.83301 0.166992 -10.5 0.5s-7.5 0.5 -11.5 0.5
v-73c3.33301 0 6.83301 0.166992 10.5 0.5s7.16699 0.5 10.5 0.5c43.333 0 73.666 -10.167 90.999 -30.5s26 -54.166 26 -101.499v-120c0 -38 2.66699 -69.167 8 -93.5s19 -43.166 41 -56.499c16 -10 34.833 -16.5 56.5 -19.5s47.167 -4.5 76.5 -4.5h21v72h-19
c-21.333 0 -38.5 1.83301 -51.5 5.5s-23.167 9.83398 -30.5 18.501s-12.166 20.167 -14.499 34.5s-3.5 32.166 -3.5 53.499v118c0 23.333 -1.33301 43.666 -4 60.999s-7.5 32.5 -14.5 45.5s-16.833 23.667 -29.5 32s-29.334 15.166 -50.001 20.499
c20 5.33301 36.5 12.166 49.5 20.499s23 19 30 32s11.833 28.167 14.5 45.5s4 37.666 4 60.999v118c0 21.333 1.33301 39.166 4 53.499s7.5 25.833 14.5 34.5s17 14.834 30 18.501s29.833 5.5 50.5 5.5h20z" />
    <glyph glyph-name="bar" unicode="|" 
d="M287 764h-73v-1000h73v1000z" />
    <glyph glyph-name="braceright" unicode="}" 
d="M281 546c0 38 -2.66699 69.167 -8 93.5s-19 43.166 -41 56.499c-16 10 -35.167 16.667 -57.5 20s-48.5 5 -78.5 5h-18v-73h19c20.667 0 37.667 -1.83301 51 -5.5s23.5 -9.83398 30.5 -18.501s11.833 -20.167 14.5 -34.5s4 -32.166 4 -53.499v-118
c0 -23.333 1.33301 -43.666 4 -60.999s7.5 -32.5 14.5 -45.5s17 -23.667 30 -32s29.5 -15.166 49.5 -20.499c-20 -5.33301 -36.5 -12.166 -49.5 -20.499s-23 -19 -30 -32s-11.833 -28.167 -14.5 -45.5s-4 -37.666 -4 -60.999v-117c0 -21.333 -1.33301 -39.333 -4 -54
s-7.5 -26.334 -14.5 -35.001s-17.167 -14.834 -30.5 -18.501s-30.333 -5.5 -51 -5.5h-19v-72h21c29.333 0 54.833 1.5 76.5 4.5s40.5 9.5 56.5 19.5c22 13.333 35.667 32.166 41 56.499s8 55.5 8 93.5v120c0 47.333 8.5 81.166 25.5 101.499s47.5 30.5 91.5 30.5
c3.33301 0 6.83301 -0.166992 10.5 -0.5s7.16699 -0.5 10.5 -0.5v73c-4 0 -7.83301 -0.166992 -11.5 -0.5s-7.16699 -0.5 -10.5 -0.5c-21.333 0 -39.5 2.33301 -54.5 7s-27 12.334 -36 23.001s-15.5 24.167 -19.5 40.5s-6 36.5 -6 60.5v120z" />
    <glyph glyph-name="asciitilde" unicode="~" horiz-adv-x="833" 
d="M747 300v76.001c-34.667 -24.667 -67 -43.5 -97 -56.5s-60.667 -19.5 -92 -19.5c-23.333 0 -46.333 3.83301 -69 11.5l-71 24.5c-22.667 8 -45.5 15 -68.5 21s-47.5 9 -73.5 9c-57.333 0 -120.333 -23.333 -189 -70v-76c36 25.333 68.833 44.5 98.5 57.5
s59.5 19.5 89.5 19.5c25.333 0 49.333 -3.33301 72 -10s45.667 -14 69 -22l69 -23c22.667 -7.33301 46.667 -11 72 -11c32 0 63.333 5.66699 94 17s62.667 28.666 96 51.999z" />
    <glyph glyph-name="exclamdown" unicode="&#xa1;" horiz-adv-x="384" 
d="M230 306h-79l-38 -306h155zM155 374l71.001 -0.000976562c8 0 14.833 0.166992 20.5 0.5s10 1.5 13 3.5s5.16699 5.33301 6.5 10s2 11.334 2 20.001v74c0 12 -1.5 20.667 -4.5 26s-9.83301 8 -20.5 8h-17h-71c-16.667 0 -27.834 -1.5 -33.501 -4.5
s-8.5 -12.833 -8.5 -29.5v-74c0 -12 1.5 -20.667 4.5 -26s9.83301 -8 20.5 -8h17z" />
    <glyph glyph-name="cent" unicode="&#xa2;" horiz-adv-x="773" 
d="M268 -101l53.9971 -0.000976562l35 101h134c28.667 0 49.334 4.33301 62.001 13s19 25.334 19 50.001v65l-88 21v-68h-100l65 186h35v-54l88 14v45c0 16 -1.33301 28.833 -4 38.5s-7.66699 17.167 -15 22.5s-17.166 8.83301 -29.499 10.5s-28.166 2.5 -47.499 2.5l28 82
h-54l-28 -82h-126c-18.667 0 -34.167 -1.33301 -46.5 -4s-22 -7 -29 -13s-12 -14 -15 -24s-4.5 -22.667 -4.5 -38v-186c0 -28 5.16699 -48.5 15.5 -61.5s30.5 -19.5 60.5 -19.5h26zM330.997 80.999h-35v186h99z" />
    <glyph glyph-name="sterling" unicode="&#xa3;" horiz-adv-x="773" 
d="M105 -12l8.99902 -0.00390625c27.333 0 51.833 4.5 73.5 13.5s43.5 23.167 65.5 42.5c62 -18 117.667 -31.167 167 -39.5s93 -12.5 131 -12.5c110.667 0 166 42.333 166 127v37l-98 18v-20c0 -27.333 -6.33301 -45 -19 -53s-36.667 -12 -72 -12
c-32.667 0 -68.5 2.83301 -107.5 8.5s-80.5 14.5 -124.5 26.5c5.33301 15.333 9.33301 31.5 12 48.5s4.33398 35.167 5.00098 54.5h142v79h-146c-2.66699 15.333 -4 31.333 -4 48c0 16 1.33301 29.167 4 39.5s7.16699 18.333 13.5 24s15 9.66699 26 12s25.167 3.5 42.5 3.5
h114c24 0 41.833 -3.16699 53.5 -9.5s17.5 -20.166 17.5 -41.499v-30l101 17v47c0 32 -11.333 56.667 -34 74s-57 26 -103 26h-175c-56.667 0 -97.5 -11.167 -122.5 -33.5s-37.5 -59.166 -37.5 -110.499c0 -10 0.333008 -20.5 1 -31.5s1.66699 -22.5 3 -34.5h-105v-79h111
c0.666992 -7.33301 1.16699 -13.166 1.5 -17.499s0.5 -7.83301 0.5 -10.5c0 -36 -8.5 -62.167 -25.5 -78.5s-45.833 -26.166 -86.5 -29.499v-103z" />
    <glyph glyph-name="currency" unicode="&#xa4;" horiz-adv-x="606" 
d="M179 595l-100 100.002l-40 -39l101 -101c-27.333 -36.667 -41 -77.667 -41 -123c0 -26.667 4 -50.334 12 -71.001s17.667 -38 29 -52l-101 -100l40 -40l100 100c36.667 -28 78.334 -42 125.001 -42c24.667 0 47.167 3.66699 67.5 11s39.166 17.666 56.499 30.999
l100 -100l40 40l-100 100c14 18.667 24.167 38.167 30.5 58.5s9.5 41.833 9.5 64.5c0 46.667 -13.333 87.667 -40 123l100 101l-40 39l-100 -100c-37.333 28 -79 42 -125 42s-87.333 -14 -124 -42zM452 433.002c0 -20.667 -3.83301 -40 -11.5 -58
s-18.167 -33.833 -31.5 -47.5s-29 -24.334 -47 -32.001s-37.333 -11.5 -58 -11.5s-40 3.83301 -58 11.5s-33.667 18.334 -47 32.001s-23.833 29.5 -31.5 47.5s-11.5 37.333 -11.5 58c0 20 3.83301 39 11.5 57s18.167 33.833 31.5 47.5s29 24.334 47 32.001
s37.333 11.5 58 11.5s40 -3.83301 58 -11.5s33.667 -18.334 47 -32.001s23.833 -29.5 31.5 -47.5s11.5 -37 11.5 -57z" />
    <glyph glyph-name="yen" unicode="&#xa5;" horiz-adv-x="773" 
d="M570 516l-174 -203l-175 203h-158l136 -144h-109v-65h170l72 -77h-242v-65h242v-165h111v165h241v65h-241l72 77h169v65h-109l135 144h-140z" />
    <glyph glyph-name="brokenbar" unicode="&#xa6;" 
d="M287 699h-73v-370h73v370zM287 199h-73v-370h73v370z" />
    <glyph glyph-name="section" unicode="&#xa7;" 
d="M132 263c0 10.667 3.83203 19.834 11.499 27.501s18.834 11.5 33.501 11.5c11.333 0 28.333 -3 51 -9s47.334 -16 74.001 -30c46.667 -24.667 70 -47.667 70 -69c0 -11.333 -4.5 -20.5 -13.5 -27.5s-21.167 -10.5 -36.5 -10.5c-12.667 0 -30.834 3.16699 -54.501 9.5
s-49.167 17.166 -76.5 32.499c-39.333 21.333 -59 43 -59 65zM75.999 -21c23.333 -21.333 50.501 -38.1611 81.501 -50.4941s62.5 -18.5 94.5 -18.5c22 0 42 3 60 9s33.5 14.167 46.5 24.5s23.167 22.333 30.5 36s11 28.5 11 44.5c0 20 -5.5 38.667 -16.5 56
s-26.167 30.666 -45.5 39.999c33.333 6.66699 59 19 77 37s27 39.667 27 65c0 18 -3.83301 33.5 -11.5 46.5s-18.667 25 -33 36s-31.833 21.333 -52.5 31s-44 19.5 -70 29.5c-28 11.333 -49.5 21.166 -64.5 29.499s-22.5 20.166 -22.5 35.499c0 12 5.16699 22 15.5 30
s25.166 12 44.499 12c30.667 0 63.667 -16 99 -48l58 51c-22 19.333 -46.667 34 -74 44s-56 15 -86 15c-43.333 0 -77.5 -10.167 -102.5 -30.5s-37.5 -45.833 -37.5 -76.5c0 -36 18.667 -65.667 56 -89c-32 -5.33301 -56.667 -16.833 -74 -34.5s-26 -39.834 -26 -66.501
c0 -33.333 13 -60.333 39 -81s64.667 -41.334 116 -62.001l42 -17.5c12 -5 22.333 -10.167 31 -15.5s15.167 -11 19.5 -17s6.5 -13 6.5 -21c0 -12.667 -5.83301 -23.334 -17.5 -32.001s-27.167 -13 -46.5 -13c-40.667 0 -79.667 18.333 -117 55z" />
    <glyph glyph-name="dieresis" unicode="&#xa8;" 
d="M117 501h100v112h-100v-112zM283 501h100v112h-100v-112z" />
    <glyph glyph-name="copyright" unicode="&#xa9;" horiz-adv-x="833" 
d="M416 715c-48.667 0 -94.334 -8.83594 -137.001 -26.5029s-81 -43.5 -115 -77.5c-35.333 -36 -62 -75.667 -80 -119s-27 -89 -27 -137s9 -93.5 27 -136.5s44.333 -81.833 79 -116.5s73.5 -61.167 116.5 -79.5s88.5 -27.5 136.5 -27.5s93.833 9.33301 137.5 28
s83.5 45.334 119.5 80.001c34 33.333 59.833 71.333 77.5 114s26.5 88.667 26.5 138c0 48.667 -9 94.834 -27 138.501s-44 82.5 -78 116.5c-34.667 34.667 -73.667 60.834 -117 78.501s-89.666 26.5 -138.999 26.5zM729 354.997c0 -43.333 -7.66699 -83.4971 -23 -120.497
s-37.666 -69.833 -66.999 -98.5c-31.333 -30 -65.833 -53 -103.5 -69s-77.167 -24 -118.5 -24c-42 0 -81.667 7.83301 -119 23.5s-71 38.5 -101 68.5s-53 63.833 -69 101.5s-24 77.167 -24 118.5s8 81.166 24 119.499s39.333 72.833 70 103.5
c29.333 29.333 62.5 51.666 99.5 66.999s76.833 23 119.5 23c86.667 0 160.667 -30.667 222 -92c29.333 -29.333 51.666 -62.833 66.999 -100.5s23 -77.834 23 -120.501zM514 443l72.0049 0.000976562c-2 19.333 -7.33301 37.166 -16 53.499s-20.334 30.333 -35.001 42
s-31.834 20.667 -51.501 27s-41.167 9.5 -64.5 9.5c-28.667 0 -54.834 -5.16699 -78.501 -15.5s-44 -24.833 -61 -43.5s-30.167 -41.5 -39.5 -68.5s-14 -56.833 -14 -89.5c0 -70.667 17 -125.334 51 -164.001s80.333 -58 139 -58c49.333 0 89.833 13.167 121.5 39.5
s49.167 60.833 52.5 103.5h-71c-4.66699 -27.333 -15.834 -48.5 -33.501 -63.5s-39.834 -22.5 -66.501 -22.5c-36 0 -64.167 14 -84.5 42s-30.5 68 -30.5 120c0 54 10 95.167 30 123.5s46.667 42.5 80 42.5c28 0 50.667 -6.66699 68 -20s28 -32.666 32 -57.999z" />
    <glyph glyph-name="ordfeminine" unicode="&#xaa;" horiz-adv-x="426" 
d="M152 308l63 106l65 -106h-128zM20 206h68l35 56h185l35 -56h76l-168 254h-66z" />
    <glyph glyph-name="guillemotleft" unicode="&#xab;" horiz-adv-x="562" 
d="M269 64l-114 148l114 147h-89l-118 -147l118 -148h89zM500 64l-114 148l114 147h-89l-118 -147l118 -148h89z" />
    <glyph glyph-name="logicalnot" unicode="&#xac;" horiz-adv-x="833" 
d="M709 420h-585v-68h518v-177h67v245z" />
    <glyph glyph-name="minus" unicode="&#xad;" horiz-adv-x="833" 
d="M709 333h-585v-69h585v69z" />
    <glyph glyph-name="registered" unicode="&#xae;" horiz-adv-x="833" 
d="M416 715c-48.667 0 -94.167 -8.5 -136.5 -25.5s-80.166 -42.5 -113.499 -76.5c-35.333 -36 -62.333 -76 -81 -120s-28 -90 -28 -138s9 -93.333 27 -136s44 -81.334 78 -116.001c34.667 -35.333 73.667 -62.166 117 -80.499s89 -27.5 137 -27.5
c47.333 0 92.833 9.16699 136.5 27.5s83.5 44.833 119.5 79.5c34 33.333 60 71.333 78 114s27 89 27 139c0 48 -9 93.667 -27 137s-43.667 82 -77 116c-34.667 35.333 -73.834 62 -117.501 80s-90.167 27 -139.5 27zM729 352c0 -42 -7.66602 -81.4961 -22.999 -118.496
s-38 -69.833 -68 -98.5c-31.333 -30 -65.833 -52.833 -103.5 -68.5s-77.834 -23.5 -120.501 -23.5c-40 0 -78.833 8 -116.5 24s-71.5 39 -101.5 69s-52.833 63.667 -68.5 101s-23.5 76.666 -23.5 117.999s8.16699 81.166 24.5 119.499s39.833 73.166 70.5 104.499
c28.667 29.333 61.667 51.5 99 66.5s77 22.5 119 22.5c43.333 0 83.833 -7.83301 121.5 -23.5s71.5 -38.834 101.5 -69.501c29.333 -29.333 51.5 -62.833 66.5 -100.5s22.5 -78.5 22.5 -122.5zM426.001 566.004h-154v-408h77v174h76l83 -174h86l-91 186
c30 6 53 18.5 69 37.5s24 43.167 24 72.5c0 74.667 -56.667 112 -170 112zM412.001 516.004c36 0 62.5 -5.33301 79.5 -16s25.5 -28.667 25.5 -54c0 -24 -8.33301 -40.833 -25 -50.5s-42.667 -14.5 -78 -14.5h-65v135h63z" />
    <glyph glyph-name="macron" unicode="&#xaf;" 
d="M115 521h270v72h-270v-72z" />
    <glyph glyph-name="degree" unicode="&#xb0;" horiz-adv-x="329" 
d="M165 711c-19.333 0 -37.4971 -3.66602 -54.4971 -10.999s-32 -17.333 -45 -30s-23.167 -27.5 -30.5 -44.5s-11 -35.5 -11 -55.5c0 -19.333 3.66699 -37.5 11 -54.5s17.166 -31.833 29.499 -44.5s27 -22.667 44 -30s35.5 -11 55.5 -11s38.667 3.66699 56 11
s32.166 17.5 44.499 30.5s22.166 27.833 29.499 44.5s11 34.667 11 54s-3.66699 37.666 -11 54.999s-17.333 32.333 -30 45s-27.5 22.667 -44.5 30s-35.167 11 -54.5 11zM259.003 571.001c0 -13.333 -2.33203 -25.668 -6.99902 -37.001s-11.167 -21.5 -19.5 -30.5
s-18.333 -16 -30 -21s-24.167 -7.5 -37.5 -7.5c-26.667 0 -49.167 9.33301 -67.5 28s-27.5 41.334 -27.5 68.001c0 13.333 2.5 25.666 7.5 36.999s11.833 21.333 20.5 30s18.667 15.334 30 20.001s23.666 7 36.999 7c26.667 0 49 -9.16699 67 -27.5s27 -40.5 27 -66.5z" />
    <glyph glyph-name="plusminus" unicode="&#xb1;" horiz-adv-x="833" 
d="M451 582h-69v-166h-258v-68h258v-166h69v166h258v68h-258v166zM709 83h-585v-69h585v69z" />
    <glyph glyph-name="twosuperior" unicode="&#xb2;" horiz-adv-x="510" 
d="M92 455l-0.000976562 -40.001l68 -16v64h194v-40l-236 -132c-20 -11.333 -32.167 -21 -36.5 -29s-6.5 -17.333 -6.5 -28v-28h287c29.333 0 49.666 3.83301 60.999 11.5s17 24.167 17 49.5v24l-63 16v-45h-198l200 110c16 8.66699 27.333 16.834 34 24.501
s10 20.5 10 38.5v20c0 24.667 -5.66699 41 -17 49s-31.666 12 -60.999 12h-175c-29.333 0 -49.666 -4 -60.999 -12s-17 -24.333 -17 -49z" />
    <glyph glyph-name="threesuperior" unicode="&#xb3;" horiz-adv-x="510" 
d="M150 206l197.997 -0.00195312c33.333 0 55.5 5.16699 66.5 15.5s16.5 27.5 16.5 51.5v32c0 37.333 -26.333 58.333 -79 63c24.667 3.33301 41.834 9.33301 51.501 18s14.5 22.334 14.5 41.001v28c0 24.667 -5.66699 41 -17 49s-31.666 12 -60.999 12h-184
c-29.333 0 -49.666 -4 -60.999 -12s-17 -24.333 -17 -49v-19l67 -12v39h169c13.333 0 22 -1.83301 26 -5.5s6 -11.167 6 -22.5v-16c0 -11.333 -2 -18.833 -6 -22.5s-12.667 -5.5 -26 -5.5h-103v-51h115c13.333 0 22.166 -1.83301 26.499 -5.5s6.5 -11.167 6.5 -22.5v-23
c0 -11.333 -2.16699 -18.666 -6.5 -21.999s-13.166 -5 -26.499 -5h-183v43l-70 -13v-25c0 -25.333 5.5 -41.833 16.5 -49.5s31.167 -11.5 60.5 -11.5z" />
    <glyph glyph-name="acute" unicode="&#xb4;" 
d="M178 478h64l144 169h-108z" />
    <glyph glyph-name="mu" unicode="&#xb5;" horiz-adv-x="562" 
d="M188 523l-88.002 -0.000976562l-155 -732h88l54 259c17.333 -20 35.833 -34.5 55.5 -43.5s42.834 -13.5 69.501 -13.5c59.333 0 103.333 21.333 132 64c6 -22.667 14.333 -38.834 25 -48.501s26.667 -14.5 48 -14.5c8.66699 0 17.334 0.333008 26.001 1s17.667 2 27 4
l15 70c-3.33301 -0.666992 -6.33301 -1 -9 -1h-7c-12.667 0 -21.667 2.5 -27 7.5s-8 13.5 -8 25.5c0 7.33301 1 16.333 3 27s4.66699 23.334 8 38.001l76 357h-87l-56 -262c-14.667 -67.333 -34.167 -117 -58.5 -149s-58.833 -48 -103.5 -48
c-31.333 0 -55.5 8.66699 -72.5 26s-25.5 42.333 -25.5 75c0 22.667 2.33301 44.334 7 65.001z" />
    <glyph glyph-name="paragraph" unicode="&#xb6;" 
d="M468 680l0.000976562 42h-244c-29.333 0 -55.833 -4.16699 -79.5 -12.5s-43.834 -20 -60.501 -35s-29.5 -33 -38.5 -54s-13.5 -43.833 -13.5 -68.5c0 -48.667 16.167 -88.5 48.5 -119.5s76.833 -47.833 133.5 -50.5v-382h54v680h87v-680h54v680h59z" />
    <glyph glyph-name="periodcentered" unicode="&#xb7;" horiz-adv-x="331" 
d="M84 258c0 -22 7.99902 -41.168 23.999 -57.501s35 -24.5 57 -24.5c10.667 0 21 2.16699 31 6.5s18.833 10.333 26.5 18s13.667 16.334 18 26.001s6.5 20.167 6.5 31.5c0 23.333 -7.83301 42.666 -23.5 57.999s-35.167 23 -58.5 23s-42.666 -7.66699 -57.999 -23
s-23 -34.666 -23 -57.999z" />
    <glyph glyph-name="periodcentered" unicode="&#x2219;" horiz-adv-x="331" 
d="M84 258c0 -22 7.99902 -41.168 23.999 -57.501s35 -24.5 57 -24.5c10.667 0 21 2.16699 31 6.5s18.833 10.333 26.5 18s13.667 16.334 18 26.001s6.5 20.167 6.5 31.5c0 23.333 -7.83301 42.666 -23.5 57.999s-35.167 23 -58.5 23s-42.666 -7.66699 -57.999 -23
s-23 -34.666 -23 -57.999z" />
    <glyph glyph-name="cedilla" unicode="&#xb8;" 
d="M140 -212c28 -7.33301 53.335 -12.666 76.002 -15.999s41.667 -5 57 -5c40 0 70.333 8.16699 91 24.5s31 39.166 31 68.499c0 62.667 -38.333 94 -115 94h-8v46h-44v-100c3.33301 0 6.66602 0.166992 9.99902 0.5s6.66602 0.5 9.99902 0.5c23.333 0 40.833 -3 52.5 -9
s17.5 -16 17.5 -30c0 -24.667 -17.667 -37 -53 -37c-29.333 0 -71 7 -125 21v-58z" />
    <glyph glyph-name="onesuperior" unicode="&#xb9;" horiz-adv-x="510" 
d="M233 206h72v312l-144 -20v-41h72v-251z" />
    <glyph glyph-name="ordmasculine" unicode="&#xba;" horiz-adv-x="472" 
d="M55 400v-134c0 -24 5.16699 -40 15.5 -48s29.5 -12 57.5 -12h216c27.333 0 46.166 4 56.499 12s15.5 24 15.5 48v134c0 24 -5.16699 40 -15.5 48s-29.166 12 -56.499 12h-216c-28 0 -47.167 -4 -57.5 -12s-15.5 -24 -15.5 -48zM123 255v158h225v-158h-225z" />
    <glyph glyph-name="guillemotright" unicode="&#xbb;" horiz-adv-x="562" 
d="M62 359l114 -147l-114 -148h89l118 148l-118 147h-89zM294 359l113 -147l-113 -148h88l118 148l-118 147h-88z" />
    <glyph glyph-name="onequarter" unicode="&#xbc;" horiz-adv-x="1141" 
d="M223 227h69v291l-138 -18v-39h69v-234zM820 532h-64l-436 -548h65zM951 112h-177l177 129v-129zM951 -3h69v67h79v48h-79v180h-71l-244 -180v-48h246v-67z" />
    <glyph glyph-name="onehalf" unicode="&#xbd;" horiz-adv-x="1141" 
d="M223 227h69v291l-138 -18v-39h69v-234zM820 532h-64l-436 -548h65zM742 232l0.000976562 -37l64 -15v60h186v-38l-225 -123c-19.333 -10.667 -31 -19.667 -35 -27s-6 -16 -6 -26v-26h273c28 0 47.5 3.66699 58.5 11s16.5 22.666 16.5 45.999v23l-60 15v-43h-189l191 103
c15.333 8.66699 26.166 16.334 32.499 23.001s9.5 18.667 9.5 36v18c0 23.333 -5.5 38.666 -16.5 45.999s-30.5 11 -58.5 11h-166c-28 0 -47.5 -3.66699 -58.5 -11s-16.5 -22.666 -16.5 -45.999z" />
    <glyph glyph-name="threequarters" unicode="&#xbe;" horiz-adv-x="1141" 
d="M144 227l189.002 0.000976562c31.333 0 52.166 4.66699 62.499 14s15.5 25.333 15.5 48v30c0 35.333 -25 55 -75 59c23.333 3.33301 39.666 9 48.999 17s14 20.667 14 38v26c0 23.333 -5.5 38.666 -16.5 45.999s-30.5 11 -58.5 11h-175c-28 0 -47.5 -3.66699 -58.5 -11
s-16.5 -22.666 -16.5 -45.999v-18l65 -10v36h160c12.667 0 21 -1.83301 25 -5.5s6 -10.834 6 -21.501v-14c0 -10.667 -2 -17.834 -6 -21.501s-12.333 -5.5 -25 -5.5h-97v-47h109c12.667 0 21.167 -1.66699 25.5 -5s6.5 -10.333 6.5 -21v-21
c0 -10.667 -2.16699 -17.667 -6.5 -21s-12.833 -5 -25.5 -5h-175v40l-67 -12v-23c0 -23.333 5.5 -38.666 16.5 -45.999s30.5 -11 58.5 -11zM820.002 532.001h-64l-436 -548h65zM951.002 112.001h-177l177 129v-129zM951.002 -2.99902h69v67h79v48h-79v180h-71l-244 -180v-48
h246v-67z" />
    <glyph glyph-name="questiondown" unicode="&#xbf;" horiz-adv-x="662" 
d="M298 374l71.001 -0.000976562c8 0 14.833 0.166992 20.5 0.5s10 1.5 13 3.5s5.16699 5.33301 6.5 10s2 11.334 2 20.001v74c0 12 -1.5 20.667 -4.5 26s-9.83301 8 -20.5 8h-17h-71c-16.667 0 -27.834 -1.5 -33.501 -4.5s-8.5 -12.833 -8.5 -29.5v-74
c0 -12 1.5 -20.667 4.5 -26s9.83301 -8 20.5 -8h17zM383.001 306.999h-102v-27l-175 -102v-81c0 -64.667 41 -97 123 -97h204c72 0 108 35.333 108 106v28l-100 16v-64h-231v45l173 104v72z" />
    <glyph glyph-name="Agrave" unicode="&#xc0;" horiz-adv-x="771" 
d="M33 0h120l60 113h327l62 -113h135l-296 516h-116zM264 206l115 210l111 -210h-226zM458 571l-100 169h-108l144 -169h64z" />
    <glyph glyph-name="Aacute" unicode="&#xc1;" horiz-adv-x="771" 
d="M33 0h120l60 113h327l62 -113h135l-296 516h-116zM264 206l115 210l111 -210h-226zM314 571h64l144 169h-108z" />
    <glyph glyph-name="Acircumflex" unicode="&#xc2;" horiz-adv-x="771" 
d="M33 0h120l60 113h327l62 -113h135l-296 516h-116zM264 206l115 210l111 -210h-226zM241 570h63l82 103l81 -103h64l-92 170h-106z" />
    <glyph glyph-name="Atilde" unicode="&#xc3;" horiz-adv-x="771" 
d="M33 0h120l60 113h327l62 -113h135l-296 516h-116zM264 206l115 210l111 -210h-226zM533 709h-48.999c-3.33301 -12 -8.66602 -21 -15.999 -27s-16 -9 -26 -9c-8.66699 0 -17 1 -25 3l-43 12c-14.667 4.66699 -28.334 7 -41.001 7c-50 0 -81.333 -35.667 -94 -107h49
c6.66699 22 20.667 33 42 33c8.66699 0 19 -1.66699 31 -5l41 -12c12 -3.33301 23.333 -5 34 -5c26.667 0 47.667 8.83301 63 26.5s26.666 45.5 33.999 83.5z" />
    <glyph glyph-name="Adieresis" unicode="&#xc4;" horiz-adv-x="771" 
d="M33 0h120l60 113h327l62 -113h135l-296 516h-116zM264 206l115 210l111 -210h-226zM253 594h100v112h-100v-112zM419 594h100v112h-100v-112z" />
    <glyph glyph-name="Aring" unicode="&#xc5;" horiz-adv-x="771" 
d="M33 0h120l60 113h327l62 -113h135l-296 516h-116zM264 206l115 210l111 -210h-226zM257 675c0 -18 3.16699 -34.667 9.5 -50s15.166 -28.666 26.499 -39.999s24.666 -20.166 39.999 -26.499s31.666 -9.5 48.999 -9.5s33.666 3.16699 48.999 9.5
s28.833 15.166 40.5 26.499s20.834 24.666 27.501 39.999s10 32 10 50c0 17.333 -3.33301 33.666 -10 48.999s-15.834 28.666 -27.501 39.999s-25.167 20.166 -40.5 26.499s-31.666 9.5 -48.999 9.5s-33.666 -3.16699 -48.999 -9.5s-28.666 -15.166 -39.999 -26.499
s-20.166 -24.666 -26.499 -39.999s-9.5 -31.666 -9.5 -48.999zM321 674c0 17.333 6 32.166 18 44.499s26.667 18.5 44 18.5s32 -6.16699 44 -18.5s18 -27.166 18 -44.499s-6 -32 -18 -44s-26.667 -18 -44 -18s-32 6 -44 18s-18 26.667 -18 44z" />
    <glyph glyph-name="AE" unicode="&#xc6;" horiz-adv-x="1069" 
d="M980 97h-339v128h239v88h-239v115h334v88h-527l-431 -516h137l105 128h265v-128h456v97zM524 222h-196l178 216h18v-216z" />
    <glyph glyph-name="Ccedilla" unicode="&#xc7;" horiz-adv-x="801" 
d="M565 424v-98l120 19v49c0 24 -2.16699 44 -6.5 60s-11.5 28.5 -21.5 37.5s-23.167 15.333 -39.5 19s-36.5 5.5 -60.5 5.5h-308c-24 0 -44.167 -1.83301 -60.5 -5.5s-29.5 -10 -39.5 -19s-17.167 -21.5 -21.5 -37.5s-6.5 -36 -6.5 -60v-272c0 -24 2.16699 -44 6.5 -60
s11.5 -28.5 21.5 -37.5s23.167 -15.333 39.5 -19s36.5 -5.5 60.5 -5.5h308c24 -0 44.167 1.83301 60.5 5.5s29.5 10 39.5 19s17.167 21.5 21.5 37.5s6.5 36 6.5 60v61l-120 25v-111h-324v327h324zM291 -212c28 -7.33301 53.335 -12.666 76.002 -15.999s41.667 -5 57 -5
c40 0 70.333 8.16699 91 24.5s31 39.166 31 68.499c0 62.667 -38.333 94 -115 94h-8v46h-44v-100c3.33301 0 6.66602 0.166992 9.99902 0.5s6.66602 0.5 9.99902 0.5c23.333 0 40.833 -3 52.5 -9s17.5 -16 17.5 -30c0 -24.667 -17.667 -37 -53 -37c-29.333 0 -71 7 -125 21
v-58z" />
    <glyph glyph-name="Egrave" unicode="&#xc8;" horiz-adv-x="755" 
d="M132 0h533v97h-413v128h238v88h-238v115h408v88h-528v-516zM471 571l-100 169h-108l144 -169h64z" />
    <glyph glyph-name="Eacute" unicode="&#xc9;" horiz-adv-x="755" 
d="M132 0h533v97h-413v128h238v88h-238v115h408v88h-528v-516zM327 571h64l144 169h-108z" />
    <glyph glyph-name="Ecircumflex" unicode="&#xca;" horiz-adv-x="755" 
d="M132 0h533v97h-413v128h238v88h-238v115h408v88h-528v-516zM254 570h63l82 103l81 -103h64l-92 170h-106z" />
    <glyph glyph-name="Edieresis" unicode="&#xcb;" horiz-adv-x="755" 
d="M132 0h533v97h-413v128h238v88h-238v115h408v88h-528v-516zM266 594h100v112h-100v-112zM432 594h100v112h-100v-112z" />
    <glyph glyph-name="Igrave" unicode="&#xcc;" horiz-adv-x="384" 
d="M132 0h120v516h-120v-516zM265 571l-100 169h-108l144 -169h64z" />
    <glyph glyph-name="Iacute" unicode="&#xcd;" horiz-adv-x="384" 
d="M132 0h120v516h-120v-516zM121 571h64l144 169h-108z" />
    <glyph glyph-name="Icircumflex" unicode="&#xce;" horiz-adv-x="384" 
d="M132 0h120v516h-120v-516zM48 570h63l82 103l81 -103h64l-92 170h-106z" />
    <glyph glyph-name="Idieresis" unicode="&#xcf;" horiz-adv-x="384" 
d="M132 0h120v516h-120v-516zM60 594h100v112h-100v-112zM226 594h100v112h-100v-112z" />
    <glyph glyph-name="Eth" unicode="&#xd0;" horiz-adv-x="847" 
d="M132 0l301 -0.000976562c46 0 86.5 2.83301 121.5 8.5s65.167 16.167 90.5 31.5c36 22 64 52.167 84 90.5s30 81.833 30 130.5c0 80.667 -24.833 143.334 -74.5 188.001s-123.167 67 -220.5 67h-332v-198h-96v-95h96v-223zM252 96.999v126h192v95h-192v106h213
c56.667 0 99.167 -13.667 127.5 -41s42.5 -67.333 42.5 -120c0 -32 -4.83301 -58.667 -14.5 -80s-24 -38.333 -43 -51s-42.667 -21.667 -71 -27s-61.5 -8 -99.5 -8h-155z" />
    <glyph glyph-name="Ntilde" unicode="&#xd1;" horiz-adv-x="869" 
d="M131 0h108.001v279c0 7.33301 -0.333008 17.833 -1 31.5s-2 30.5 -4 50.5c7.33301 -8 14.5 -15.333 21.5 -22l21.5 -20l379 -319h82v516h-108v-271c0 -8 0.5 -19.5 1.5 -34.5l3.5 -54.5c-9.33301 10.667 -18.833 20.5 -28.5 29.5s-19.834 17.833 -30.501 26.5l-363 304
h-82v-516zM582.001 709h-48.999c-3.33301 -12 -8.66602 -21 -15.999 -27s-16 -9 -26 -9c-8.66699 0 -17 1 -25 3l-43 12c-14.667 4.66699 -28.334 7 -41.001 7c-50 0 -81.333 -35.667 -94 -107h49c6.66699 22 20.667 33 42 33c8.66699 0 19 -1.66699 31 -5l41 -12
c12 -3.33301 23.333 -5 34 -5c26.667 0 47.667 8.83301 63 26.5s26.666 45.5 33.999 83.5z" />
    <glyph glyph-name="Ograve" unicode="&#xd2;" horiz-adv-x="878" 
d="M241 97v327h396v-327h-396zM121 394v-272c0 -24 2.16699 -44 6.5 -60s11.5 -28.5 21.5 -37.5s23.167 -15.333 39.5 -19s36.5 -5.5 60.5 -5.5h380c24 -0 44.167 1.83301 60.5 5.5s29.5 10 39.5 19s17.167 21.5 21.5 37.5s6.5 36 6.5 60v272c0 24 -2.16699 44 -6.5 60
s-11.5 28.5 -21.5 37.5s-23.167 15.333 -39.5 19s-36.5 5.5 -60.5 5.5h-380c-24 0 -44.167 -1.83301 -60.5 -5.5s-29.5 -10 -39.5 -19s-17.167 -21.5 -21.5 -37.5s-6.5 -36 -6.5 -60zM511 571l-100 169h-108l144 -169h64z" />
    <glyph glyph-name="Oacute" unicode="&#xd3;" horiz-adv-x="878" 
d="M241 97v327h396v-327h-396zM121 394v-272c0 -24 2.16699 -44 6.5 -60s11.5 -28.5 21.5 -37.5s23.167 -15.333 39.5 -19s36.5 -5.5 60.5 -5.5h380c24 -0 44.167 1.83301 60.5 5.5s29.5 10 39.5 19s17.167 21.5 21.5 37.5s6.5 36 6.5 60v272c0 24 -2.16699 44 -6.5 60
s-11.5 28.5 -21.5 37.5s-23.167 15.333 -39.5 19s-36.5 5.5 -60.5 5.5h-380c-24 0 -44.167 -1.83301 -60.5 -5.5s-29.5 -10 -39.5 -19s-17.167 -21.5 -21.5 -37.5s-6.5 -36 -6.5 -60zM367 571h64l144 169h-108z" />
    <glyph glyph-name="Ocircumflex" unicode="&#xd4;" horiz-adv-x="878" 
d="M241 97v327h396v-327h-396zM121 394v-272c0 -24 2.16699 -44 6.5 -60s11.5 -28.5 21.5 -37.5s23.167 -15.333 39.5 -19s36.5 -5.5 60.5 -5.5h380c24 -0 44.167 1.83301 60.5 5.5s29.5 10 39.5 19s17.167 21.5 21.5 37.5s6.5 36 6.5 60v272c0 24 -2.16699 44 -6.5 60
s-11.5 28.5 -21.5 37.5s-23.167 15.333 -39.5 19s-36.5 5.5 -60.5 5.5h-380c-24 0 -44.167 -1.83301 -60.5 -5.5s-29.5 -10 -39.5 -19s-17.167 -21.5 -21.5 -37.5s-6.5 -36 -6.5 -60zM294 570h63l82 103l81 -103h64l-92 170h-106z" />
    <glyph glyph-name="Otilde" unicode="&#xd5;" horiz-adv-x="878" 
d="M241 97v327h396v-327h-396zM121 394v-272c0 -24 2.16699 -44 6.5 -60s11.5 -28.5 21.5 -37.5s23.167 -15.333 39.5 -19s36.5 -5.5 60.5 -5.5h380c24 -0 44.167 1.83301 60.5 5.5s29.5 10 39.5 19s17.167 21.5 21.5 37.5s6.5 36 6.5 60v272c0 24 -2.16699 44 -6.5 60
s-11.5 28.5 -21.5 37.5s-23.167 15.333 -39.5 19s-36.5 5.5 -60.5 5.5h-380c-24 0 -44.167 -1.83301 -60.5 -5.5s-29.5 -10 -39.5 -19s-17.167 -21.5 -21.5 -37.5s-6.5 -36 -6.5 -60zM586 709h-48.999c-3.33301 -12 -8.66602 -21 -15.999 -27s-16 -9 -26 -9
c-8.66699 0 -17 1 -25 3l-43 12c-14.667 4.66699 -28.334 7 -41.001 7c-50 0 -81.333 -35.667 -94 -107h49c6.66699 22 20.667 33 42 33c8.66699 0 19 -1.66699 31 -5l41 -12c12 -3.33301 23.333 -5 34 -5c26.667 0 47.667 8.83301 63 26.5s26.666 45.5 33.999 83.5z" />
    <glyph glyph-name="Odieresis" unicode="&#xd6;" horiz-adv-x="878" 
d="M241 97v327h396v-327h-396zM121 394v-272c0 -24 2.16699 -44 6.5 -60s11.5 -28.5 21.5 -37.5s23.167 -15.333 39.5 -19s36.5 -5.5 60.5 -5.5h380c24 -0 44.167 1.83301 60.5 5.5s29.5 10 39.5 19s17.167 21.5 21.5 37.5s6.5 36 6.5 60v272c0 24 -2.16699 44 -6.5 60
s-11.5 28.5 -21.5 37.5s-23.167 15.333 -39.5 19s-36.5 5.5 -60.5 5.5h-380c-24 0 -44.167 -1.83301 -60.5 -5.5s-29.5 -10 -39.5 -19s-17.167 -21.5 -21.5 -37.5s-6.5 -36 -6.5 -60zM306 594h100v112h-100v-112zM472 594h100v112h-100v-112z" />
    <glyph glyph-name="multiply" unicode="&#xd7;" horiz-adv-x="833" 
d="M420 346l-229 229l-48 -48l229 -229l-229 -229l48 -47l229 228l229 -228l48 47l-229 229l229 229l-48 48z" />
    <glyph glyph-name="Oslash" unicode="&#xd8;" horiz-adv-x="878" 
d="M637 424v-327h-275l228 327h47zM121 394v-271.999c0 -40 6.16699 -69.333 18.5 -88s35.5 -29.334 69.5 -32.001l-90 -130h99l90 128h321c24 -0 44.167 1.83301 60.5 5.5s29.5 10 39.5 19s17.167 21.5 21.5 37.5s6.5 36 6.5 60v272c0 40 -6.16699 69.333 -18.5 88
s-35.833 29.667 -70.5 33l91 129h-99l-92 -128h-319c-24 0 -44.167 -1.83301 -60.5 -5.5s-29.5 -10 -39.5 -19s-17.167 -21.5 -21.5 -37.5s-6.5 -36 -6.5 -60zM241 97.001v327h275l-227 -327h-48z" />
    <glyph glyph-name="Ugrave" unicode="&#xd9;" horiz-adv-x="846" 
d="M252 516h-120v-394c0 -24 2.16699 -44 6.5 -60s11.5 -28.5 21.5 -37.5s23.167 -15.333 39.5 -19s36.5 -5.5 60.5 -5.5h326c24 -0 44.167 1.83301 60.5 5.5s29.5 10 39.5 19s17.167 21.5 21.5 37.5s6.5 36 6.5 60v394h-120v-419h-342v419zM495 571l-100 169h-108l144 -169
h64z" />
    <glyph glyph-name="Uacute" unicode="&#xda;" horiz-adv-x="846" 
d="M252 516h-120v-394c0 -24 2.16699 -44 6.5 -60s11.5 -28.5 21.5 -37.5s23.167 -15.333 39.5 -19s36.5 -5.5 60.5 -5.5h326c24 -0 44.167 1.83301 60.5 5.5s29.5 10 39.5 19s17.167 21.5 21.5 37.5s6.5 36 6.5 60v394h-120v-419h-342v419zM351 571h64l144 169h-108z" />
    <glyph glyph-name="Ucircumflex" unicode="&#xdb;" horiz-adv-x="846" 
d="M252 516h-120v-394c0 -24 2.16699 -44 6.5 -60s11.5 -28.5 21.5 -37.5s23.167 -15.333 39.5 -19s36.5 -5.5 60.5 -5.5h326c24 -0 44.167 1.83301 60.5 5.5s29.5 10 39.5 19s17.167 21.5 21.5 37.5s6.5 36 6.5 60v394h-120v-419h-342v419zM278 570h63l82 103l81 -103h64
l-92 170h-106z" />
    <glyph glyph-name="Udieresis" unicode="&#xdc;" horiz-adv-x="846" 
d="M252 516h-120v-394c0 -24 2.16699 -44 6.5 -60s11.5 -28.5 21.5 -37.5s23.167 -15.333 39.5 -19s36.5 -5.5 60.5 -5.5h326c24 -0 44.167 1.83301 60.5 5.5s29.5 10 39.5 19s17.167 21.5 21.5 37.5s6.5 36 6.5 60v394h-120v-419h-342v419zM290 594h100v112h-100v-112z
M456 594h100v112h-100v-112z" />
    <glyph glyph-name="Yacute" unicode="&#xdd;" horiz-adv-x="672" 
d="M276 0h121v234l267 282h-141l-178 -198l-177 198h-160l268 -285v-231zM264 571h64l144 169h-108z" />
    <glyph glyph-name="Thorn" unicode="&#xde;" horiz-adv-x="743" 
d="M132 516v-516h118v110h324c40 0 69.333 7.66699 88 23s28 41 28 77v115c0 36 -9.33301 61.667 -28 77s-48 23 -88 23h-324v91h-118zM250 336h270c18.667 0 32.334 -2.5 41.001 -7.5s13 -16.167 13 -33.5v-55c0 -17.333 -4.33301 -28.5 -13 -33.5
s-22.334 -7.5 -41.001 -7.5h-270v137z" />
    <glyph glyph-name="germandbls" unicode="&#xdf;" horiz-adv-x="1326" 
d="M485 347v-45l89 19v10c0 36.667 -8.83301 61.167 -26.5 73.5s-45.834 18.5 -84.501 18.5h-251c-20.667 0 -38.167 -1.5 -52.5 -4.5s-25.833 -8.16699 -34.5 -15.5s-14.834 -17.5 -18.501 -30.5s-5.5 -29.5 -5.5 -49.5v-47c0 -20 1.83301 -36.5 5.5 -49.5
s9.83398 -23.167 18.501 -30.5s20.167 -12.5 34.5 -15.5s31.833 -4.5 52.5 -4.5h274v-97h-311v50l-92 -17v-12c0 -20 1.83301 -36.333 5.5 -49s9.83398 -22.834 18.501 -30.501s20 -13 34 -16s31.667 -4.5 53 -4.5h275c20.667 0 38.167 1.5 52.5 4.5
s25.666 8.33301 33.999 16s14.333 17.834 18 30.501s5.5 29 5.5 49v58c0 20 -1.83301 36.5 -5.5 49.5s-9.66699 23.167 -18 30.5s-19.666 12.5 -33.999 15.5s-31.833 4.5 -52.5 4.5h-275v89h291zM1148 347v-45l89 19v10c0 36.667 -8.83301 61.167 -26.5 73.5
s-45.834 18.5 -84.501 18.5h-251c-20.667 0 -38.167 -1.5 -52.5 -4.5s-25.833 -8.16699 -34.5 -15.5s-14.834 -17.5 -18.501 -30.5s-5.5 -29.5 -5.5 -49.5v-47c0 -20 1.83301 -36.5 5.5 -49.5s9.83398 -23.167 18.501 -30.5s20.167 -12.5 34.5 -15.5s31.833 -4.5 52.5 -4.5
h274v-97h-311v50l-92 -17v-12c0 -20 1.83301 -36.333 5.5 -49s9.83398 -22.834 18.501 -30.501s20 -13 34 -16s31.667 -4.5 53 -4.5h275c20.667 0 38.167 1.5 52.5 4.5s25.666 8.33301 33.999 16s14.333 17.834 18 30.501s5.5 29 5.5 49v58c0 20 -1.83301 36.5 -5.5 49.5
s-9.66699 23.167 -18 30.5s-19.666 12.5 -33.999 15.5s-31.833 4.5 -52.5 4.5h-275v89h291z" />
    <glyph glyph-name="agrave" unicode="&#xe0;" horiz-adv-x="646" 
d="M230 170l95 176l99 -176h-194zM30 0h103l53 93h280l53 -93h116l-255 423h-99zM395 478l-100 169h-108l144 -169h64z" />
    <glyph glyph-name="aacute" unicode="&#xe1;" horiz-adv-x="646" 
d="M230 170l95 176l99 -176h-194zM30 0h103l53 93h280l53 -93h116l-255 423h-99zM251 478h64l144 169h-108z" />
    <glyph glyph-name="acircumflex" unicode="&#xe2;" horiz-adv-x="646" 
d="M230 170l95 176l99 -176h-194zM30 0h103l53 93h280l53 -93h116l-255 423h-99zM178 477h63l82 103l81 -103h64l-92 170h-106z" />
    <glyph glyph-name="atilde" unicode="&#xe3;" horiz-adv-x="646" 
d="M230 170l95 176l99 -176h-194zM30 0h103l53 93h280l53 -93h116l-255 423h-99zM470 616h-48.999c-3.33301 -12 -8.66602 -21 -15.999 -27s-16 -9 -26 -9c-8.66699 0 -17 1 -25 3l-43 12c-14.667 4.66699 -28.334 7 -41.001 7c-50 0 -81.333 -35.667 -94 -107h49
c6.66699 22 20.667 33 42 33c8.66699 0 19 -1.66699 31 -5l41 -12c12 -3.33301 23.333 -5 34 -5c26.667 0 47.667 8.83301 63 26.5s26.666 45.5 33.999 83.5z" />
    <glyph glyph-name="adieresis" unicode="&#xe4;" horiz-adv-x="646" 
d="M230 170l95 176l99 -176h-194zM30 0h103l53 93h280l53 -93h116l-255 423h-99zM190 501h100v112h-100v-112zM356 501h100v112h-100v-112z" />
    <glyph glyph-name="aring" unicode="&#xe5;" horiz-adv-x="646" 
d="M230 170l95 176l99 -176h-194zM30 0h103l53 93h280l53 -93h116l-255 423h-99zM198 594c0 -18 3.16699 -34.667 9.5 -50s15.166 -28.666 26.499 -39.999s24.666 -20.166 39.999 -26.499s31.666 -9.5 48.999 -9.5s33.666 3.16699 48.999 9.5s28.666 15.166 39.999 26.499
s20.333 24.666 27 39.999s10 32 10 50c0 17.333 -3.33301 33.666 -10 48.999s-15.667 28.666 -27 39.999s-24.666 20.333 -39.999 27s-31.666 10 -48.999 10s-33.666 -3.33301 -48.999 -10s-28.666 -15.667 -39.999 -27s-20.166 -24.666 -26.499 -39.999
s-9.5 -31.666 -9.5 -48.999zM261 594c0 17.333 6.16699 32 18.5 44s27.166 18 44.499 18s32 -6 44 -18s18 -26.667 18 -44s-6 -32.166 -18 -44.499s-26.667 -18.5 -44 -18.5s-32.166 6.16699 -44.499 18.5s-18.5 27.166 -18.5 44.499z" />
    <glyph glyph-name="ae" unicode="&#xe6;" horiz-adv-x="898" 
d="M454 182h-173l154 177h19v-177zM843 80h-291v103h205v73h-205v92h287v75h-453l-371 -423h117l91 105h231v-105h389v80z" />
    <glyph glyph-name="ccedilla" unicode="&#xe7;" horiz-adv-x="644" 
d="M465 345v-78l104 15v41c0 20 -1.83301 36.5 -5.5 49.5s-9.83398 23.167 -18.501 30.5s-20.167 12.5 -34.5 15.5s-31.833 4.5 -52.5 4.5h-264c-21.333 0 -39 -1.5 -53 -4.5s-25.167 -8.33301 -33.5 -16s-14.333 -17.834 -18 -30.501s-5.5 -29 -5.5 -49v-223
c0 -19.333 1.66699 -35.5 5 -48.5s9.33301 -23.333 18 -31s20 -13 34 -16s31.667 -4.5 53 -4.5h264c20.667 0 38.167 1.5 52.5 4.5s25.833 8.33301 34.5 16s14.834 17.834 18.501 30.501s5.5 29 5.5 49v50l-104 21v-90h-278v264h278zM215 -212
c28 -7.33301 53.335 -12.666 76.002 -15.999s41.667 -5 57 -5c40 0 70.333 8.16699 91 24.5s31 39.166 31 68.499c0 62.667 -38.333 94 -115 94h-8v46h-44v-100c3.33301 0 6.66602 0.166992 9.99902 0.5s6.66602 0.5 9.99902 0.5c23.333 0 40.833 -3 52.5 -9
s17.5 -16 17.5 -30c0 -24.667 -17.667 -37 -53 -37c-29.333 0 -71 7 -125 21v-58z" />
    <glyph glyph-name="egrave" unicode="&#xe8;" horiz-adv-x="608" 
d="M94 0h459v79h-355v104h204v73h-204v92h350v75h-454v-423zM392 478l-100 169h-108l144 -169h64z" />
    <glyph glyph-name="eacute" unicode="&#xe9;" horiz-adv-x="608" 
d="M94 0h459v79h-355v104h204v73h-204v92h350v75h-454v-423zM248 478h64l144 169h-108z" />
    <glyph glyph-name="ecircumflex" unicode="&#xea;" horiz-adv-x="608" 
d="M94 0h459v79h-355v104h204v73h-204v92h350v75h-454v-423zM175 477h63l82 103l81 -103h64l-92 170h-106z" />
    <glyph glyph-name="edieresis" unicode="&#xeb;" horiz-adv-x="608" 
d="M94 0h459v79h-355v104h204v73h-204v92h350v75h-454v-423zM187 501h100v112h-100v-112zM353 501h100v112h-100v-112z" />
    <glyph glyph-name="igrave" unicode="&#xec;" horiz-adv-x="291" 
d="M94 0h103v423h-103v-423zM219 478l-100 169h-108l144 -169h64z" />
    <glyph glyph-name="iacute" unicode="&#xed;" horiz-adv-x="291" 
d="M94 0h103v423h-103v-423zM75 478h64l144 169h-108z" />
    <glyph glyph-name="icircumflex" unicode="&#xee;" horiz-adv-x="291" 
d="M94 0h103v423h-103v-423zM2 477h63l82 103l81 -103h64l-92 170h-106z" />
    <glyph glyph-name="idieresis" unicode="&#xef;" horiz-adv-x="291" 
d="M94 0h103v423h-103v-423zM14 501h100v112h-100v-112zM180 501h100v112h-100v-112z" />
    <glyph glyph-name="ntilde" unicode="&#xf1;" horiz-adv-x="712" 
d="M94 0h94v285l358 -285h71v423h-93v-281l-359 281h-71v-423zM503 616h-48.999c-3.33301 -12 -8.66602 -21 -15.999 -27s-16 -9 -26 -9c-8.66699 0 -17 1 -25 3l-43 12c-14.667 4.66699 -28.334 7 -41.001 7c-50 0 -81.333 -35.667 -94 -107h49c6.66699 22 20.667 33 42 33
c8.66699 0 19 -1.66699 31 -5l41 -12c12 -3.33301 23.333 -5 34 -5c26.667 0 47.667 8.83301 63 26.5s26.666 45.5 33.999 83.5z" />
    <glyph glyph-name="ograve" unicode="&#xf2;" horiz-adv-x="715" 
d="M84 323l0.000976562 -223c0 -20 1.83301 -36.5 5.5 -49.5s9.66699 -23.167 18 -30.5s19.5 -12.5 33.5 -15.5s31.667 -4.5 53 -4.5h327c20.667 0 38 1.5 52 4.5s25.333 8.16699 34 15.5s14.834 17.5 18.501 30.5s5.5 29.5 5.5 49.5v223c0 20 -1.83301 36.5 -5.5 49.5
s-9.83398 23.333 -18.501 31s-20 12.834 -34 15.501s-31.333 4 -52 4h-327c-20.667 0 -38 -1.33301 -52 -4s-25.333 -7.83398 -34 -15.501s-14.834 -18 -18.501 -31s-5.5 -29.5 -5.5 -49.5zM187.001 81v264h341v-264h-341zM430.001 478l-100 169h-108l144 -169h64z" />
    <glyph glyph-name="oacute" unicode="&#xf3;" horiz-adv-x="715" 
d="M84 323l0.000976562 -223c0 -20 1.83301 -36.5 5.5 -49.5s9.66699 -23.167 18 -30.5s19.5 -12.5 33.5 -15.5s31.667 -4.5 53 -4.5h327c20.667 0 38 1.5 52 4.5s25.333 8.16699 34 15.5s14.834 17.5 18.501 30.5s5.5 29.5 5.5 49.5v223c0 20 -1.83301 36.5 -5.5 49.5
s-9.83398 23.333 -18.501 31s-20 12.834 -34 15.501s-31.333 4 -52 4h-327c-20.667 0 -38 -1.33301 -52 -4s-25.333 -7.83398 -34 -15.501s-14.834 -18 -18.501 -31s-5.5 -29.5 -5.5 -49.5zM187.001 81v264h341v-264h-341zM286.001 478h64l144 169h-108z" />
    <glyph glyph-name="ocircumflex" unicode="&#xf4;" horiz-adv-x="715" 
d="M84 323l0.000976562 -223c0 -20 1.83301 -36.5 5.5 -49.5s9.66699 -23.167 18 -30.5s19.5 -12.5 33.5 -15.5s31.667 -4.5 53 -4.5h327c20.667 0 38 1.5 52 4.5s25.333 8.16699 34 15.5s14.834 17.5 18.501 30.5s5.5 29.5 5.5 49.5v223c0 20 -1.83301 36.5 -5.5 49.5
s-9.83398 23.333 -18.501 31s-20 12.834 -34 15.501s-31.333 4 -52 4h-327c-20.667 0 -38 -1.33301 -52 -4s-25.333 -7.83398 -34 -15.501s-14.834 -18 -18.501 -31s-5.5 -29.5 -5.5 -49.5zM187.001 81v264h341v-264h-341zM213.001 477h63l82 103l81 -103h64l-92 170h-106z
" />
    <glyph glyph-name="otilde" unicode="&#xf5;" horiz-adv-x="715" 
d="M84 323l0.000976562 -223c0 -20 1.83301 -36.5 5.5 -49.5s9.66699 -23.167 18 -30.5s19.5 -12.5 33.5 -15.5s31.667 -4.5 53 -4.5h327c20.667 0 38 1.5 52 4.5s25.333 8.16699 34 15.5s14.834 17.5 18.501 30.5s5.5 29.5 5.5 49.5v223c0 20 -1.83301 36.5 -5.5 49.5
s-9.83398 23.333 -18.501 31s-20 12.834 -34 15.501s-31.333 4 -52 4h-327c-20.667 0 -38 -1.33301 -52 -4s-25.333 -7.83398 -34 -15.501s-14.834 -18 -18.501 -31s-5.5 -29.5 -5.5 -49.5zM187.001 81v264h341v-264h-341zM505.001 616h-48.999
c-3.33301 -12 -8.66602 -21 -15.999 -27s-16 -9 -26 -9c-8.66699 0 -17 1 -25 3l-43 12c-14.667 4.66699 -28.334 7 -41.001 7c-50 0 -81.333 -35.667 -94 -107h49c6.66699 22 20.667 33 42 33c8.66699 0 19 -1.66699 31 -5l41 -12c12 -3.33301 23.333 -5 34 -5
c26.667 0 47.667 8.83301 63 26.5s26.666 45.5 33.999 83.5z" />
    <glyph glyph-name="odieresis" unicode="&#xf6;" horiz-adv-x="715" 
d="M84 323l0.000976562 -223c0 -20 1.83301 -36.5 5.5 -49.5s9.66699 -23.167 18 -30.5s19.5 -12.5 33.5 -15.5s31.667 -4.5 53 -4.5h327c20.667 0 38 1.5 52 4.5s25.333 8.16699 34 15.5s14.834 17.5 18.501 30.5s5.5 29.5 5.5 49.5v223c0 20 -1.83301 36.5 -5.5 49.5
s-9.83398 23.333 -18.501 31s-20 12.834 -34 15.501s-31.333 4 -52 4h-327c-20.667 0 -38 -1.33301 -52 -4s-25.333 -7.83398 -34 -15.501s-14.834 -18 -18.501 -31s-5.5 -29.5 -5.5 -49.5zM187.001 81v264h341v-264h-341zM225.001 501h100v112h-100v-112zM391.001 501h100
v112h-100v-112z" />
    <glyph glyph-name="divide" unicode="&#xf7;" horiz-adv-x="833" 
d="M417 540c-16.667 0 -31 -6 -43 -18s-18 -26.667 -18 -44s5.83301 -31.833 17.5 -43.5s26.167 -17.5 43.5 -17.5s31.833 6 43.5 18s17.5 26.333 17.5 43c0 17.333 -6 32 -18 44s-26.333 18 -43 18zM709 332h-585v-68h585v68zM417 179c-16.667 0 -31 -5.83301 -43 -17.5
s-18 -26.167 -18 -43.5s5.83301 -31.833 17.5 -43.5s26.167 -17.5 43.5 -17.5s31.833 6 43.5 18s17.5 26.333 17.5 43c0 17.333 -6 31.833 -18 43.5s-26.333 17.5 -43 17.5z" />
    <glyph glyph-name="oslash" unicode="&#xf8;" horiz-adv-x="715" 
d="M187 81v264h236l-191 -264h-45zM86 323l0.000976562 -223c0 -32.667 5.5 -56.667 16.5 -72s30.833 -24 59.5 -26l-78 -107h86l77 105h276c21.333 0 39 1.5 53 4.5s25.333 8.33301 34 16s14.667 18 18 31s5 29.167 5 48.5v223c0 32.667 -5.33301 56.667 -16 72
s-31 24.333 -61 27l78 106h-85l-79 -105h-274c-20.667 0 -38 -1.5 -52 -4.5s-25.333 -8.16699 -34 -15.5s-14.834 -17.5 -18.501 -30.5s-5.5 -29.5 -5.5 -49.5zM529.001 345v-264h-235l191 264h44z" />
    <glyph glyph-name="ugrave" unicode="&#xf9;" horiz-adv-x="689" 
d="M197 423h-103.001v-323c0 -20 1.83301 -36.333 5.5 -49s9.66699 -22.834 18 -30.501s19.5 -13 33.5 -16s31.667 -4.5 53 -4.5h280c20.667 0 38.167 1.5 52.5 4.5s25.833 8.33301 34.5 16s14.834 17.834 18.501 30.501s5.5 29 5.5 49v323h-104v-344h-294v344zM416.999 478
l-100 169h-108l144 -169h64z" />
    <glyph glyph-name="uacute" unicode="&#xfa;" horiz-adv-x="689" 
d="M197 423h-103.001v-323c0 -20 1.83301 -36.333 5.5 -49s9.66699 -22.834 18 -30.501s19.5 -13 33.5 -16s31.667 -4.5 53 -4.5h280c20.667 0 38.167 1.5 52.5 4.5s25.833 8.33301 34.5 16s14.834 17.834 18.501 30.501s5.5 29 5.5 49v323h-104v-344h-294v344zM272.999 478
h64l144 169h-108z" />
    <glyph glyph-name="ucircumflex" unicode="&#xfb;" horiz-adv-x="689" 
d="M197 423h-103.001v-323c0 -20 1.83301 -36.333 5.5 -49s9.66699 -22.834 18 -30.501s19.5 -13 33.5 -16s31.667 -4.5 53 -4.5h280c20.667 0 38.167 1.5 52.5 4.5s25.833 8.33301 34.5 16s14.834 17.834 18.501 30.501s5.5 29 5.5 49v323h-104v-344h-294v344zM199.999 477
h63l82 103l81 -103h64l-92 170h-106z" />
    <glyph glyph-name="udieresis" unicode="&#xfc;" horiz-adv-x="689" 
d="M197 423h-103.001v-323c0 -20 1.83301 -36.333 5.5 -49s9.66699 -22.834 18 -30.501s19.5 -13 33.5 -16s31.667 -4.5 53 -4.5h280c20.667 0 38.167 1.5 52.5 4.5s25.833 8.33301 34.5 16s14.834 17.834 18.501 30.501s5.5 29 5.5 49v323h-104v-344h-294v344zM211.999 501
h100v112h-100v-112zM377.999 501h100v112h-100v-112z" />
    <glyph glyph-name="yacute" unicode="&#xfd;" horiz-adv-x="593" 
d="M254 0h103v192l230 231h-121l-153 -158l-151 158h-139l231 -233v-190zM225 478h64l144 169h-108z" />
    <glyph glyph-name="ydieresis" unicode="&#xff;" horiz-adv-x="593" 
d="M254 0h103v192l230 231h-121l-153 -158l-151 158h-139l231 -233v-190zM164 501h100v112h-100v-112zM330 501h100v112h-100v-112z" />
    <glyph glyph-name="OE" unicode="&#x152;" horiz-adv-x="1105" 
d="M241 97v331h320v-331h-320zM121 394v-272c0 -24 2.16699 -44 6.5 -60s11.5 -28.5 21.5 -37.5s23.167 -15.333 39.5 -19s36.5 -5.5 60.5 -5.5h767v97h-338v128h238v88h-238v115h333v88h-762c-24 0 -44.167 -1.83301 -60.5 -5.5s-29.5 -10 -39.5 -19
s-17.167 -21.5 -21.5 -37.5s-6.5 -36 -6.5 -60z" />
    <glyph glyph-name="oe" unicode="&#x153;" horiz-adv-x="907" 
d="M84 323v-222.999c0 -20 1.66699 -36.333 5 -49s9.33301 -22.834 18 -30.501s20 -13 34 -16s31.667 -4.5 53 -4.5h660v80h-291v103h205v73h-205v92h287v75h-656c-21.333 0 -39 -1.5 -53 -4.5s-25.167 -8.16699 -33.5 -15.5s-14.333 -17.5 -18 -30.5s-5.5 -29.5 -5.5 -49.5
zM187 81.001v264h276v-264h-276z" />
    <glyph glyph-name="Scaron" unicode="&#x160;" horiz-adv-x="809" 
d="M579 426l-0.000976562 -59.001l106 25v11c0 22 -2.33301 40.333 -7 55s-12.167 26.334 -22.5 35.001s-23.666 14.667 -39.999 18s-35.833 5 -58.5 5h-293c-24 0 -44.167 -1.83301 -60.5 -5.5s-29.5 -10 -39.5 -19s-17.167 -21.5 -21.5 -37.5s-6.5 -36 -6.5 -60v-57
c0 -24 2.16699 -44 6.5 -60s11.5 -28.5 21.5 -37.5s23.167 -15.333 39.5 -19s36.5 -5.5 60.5 -5.5h322v-118h-365v61l-106 -22v-14c0 -24 2.16699 -44 6.5 -60s11.5 -28.5 21.5 -37.5s23.333 -15.333 40 -19s37 -5.5 61 -5.5h319c24 -0 44.333 1.83301 61 5.5s30 10 40 19
s17.167 21.5 21.5 37.5s6.5 36 6.5 60v71c0 24 -2.16699 44 -6.5 60s-11.5 28.5 -21.5 37.5s-23.333 15.333 -40 19s-37 5.5 -61 5.5h-322v111h338zM259.999 739.999l92 -170h106l92 170h-64l-81 -102l-82 102h-63z" />
    <glyph glyph-name="scaron" unicode="&#x161;" horiz-adv-x="663" 
d="M485 347v-45l89 19v10c0 36.667 -8.83301 61.167 -26.5 73.5s-45.834 18.5 -84.501 18.5h-251c-20.667 0 -38.167 -1.5 -52.5 -4.5s-25.833 -8.16699 -34.5 -15.5s-14.834 -17.5 -18.501 -30.5s-5.5 -29.5 -5.5 -49.5v-47c0 -20 1.83301 -36.5 5.5 -49.5
s9.83398 -23.167 18.501 -30.5s20.167 -12.5 34.5 -15.5s31.833 -4.5 52.5 -4.5h274v-97h-311v50l-92 -17v-12c0 -20 1.83301 -36.333 5.5 -49s9.83398 -22.834 18.501 -30.501s20 -13 34 -16s31.667 -4.5 53 -4.5h275c20.667 0 38.167 1.5 52.5 4.5
s25.666 8.33301 33.999 16s14.333 17.834 18 30.501s5.5 29 5.5 49v58c0 20 -1.83301 36.5 -5.5 49.5s-9.66699 23.167 -18 30.5s-19.666 12.5 -33.999 15.5s-31.833 4.5 -52.5 4.5h-275v89h291zM187 647l92 -170h106l92 170h-64l-81 -102l-82 102h-63z" />
    <glyph glyph-name="Ydieresis" unicode="&#x178;" horiz-adv-x="672" 
d="M276 0h121v234l267 282h-141l-178 -198l-177 198h-160l268 -285v-231zM203 594h100v112h-100v-112zM369 594h100v112h-100v-112z" />
    <glyph glyph-name="florin" unicode="&#x192;" horiz-adv-x="773" 
d="M386 6l63.001 322.999h120v58h-108l20 99c4 21.333 10 36.833 18 46.5s21 14.5 39 14.5c22.667 0 34 -11.333 34 -34v-4l-2 -32l99 14l-1 34c-0.666992 65.333 -40.334 98 -119.001 98c-28.667 0 -52.834 -1.83301 -72.501 -5.5s-36 -10.5 -49 -20.5
s-23.5 -23.667 -31.5 -41s-14.667 -39.333 -20 -66l-20 -103h-105v-58h93l-62 -316c-4 -20.667 -10 -36 -18 -46s-20 -15 -36 -15c-14 0 -23.667 2.33301 -29 7s-8 13.667 -8 27v4l1 39l-98 -23v-34c0 -66.667 43.667 -100 131 -100c26.667 0 49.334 2.33301 68.001 7
s34 12.334 46 23.001s21.667 24.5 29 41.5s13.333 37.833 18 62.5z" />
    <glyph glyph-name="circumflex" unicode="&#x2c6;" 
d="M105 477h63l82 103l81 -103h64l-92 170h-106z" />
    <glyph glyph-name="tilde" unicode="&#x2dc;" 
d="M397 616h-48.999c-3.33301 -12 -8.66602 -21 -15.999 -27s-16 -9 -26 -9c-8.66699 0 -17 1 -25 3l-43 12c-14.667 4.66699 -28.334 7 -41.001 7c-50 0 -81.333 -35.667 -94 -107h49c6.66699 22 20.667 33 42 33c8.66699 0 19 -1.66699 31 -5l41 -12
c12 -3.33301 23.333 -5 34 -5c26.667 0 47.667 8.83301 63 26.5s26.666 45.5 33.999 83.5z" />
    <glyph glyph-name="endash" unicode="&#x2013;" 
d="M0 231h500v70h-500v-70z" />
    <glyph glyph-name="emdash" unicode="&#x2014;" horiz-adv-x="1000" 
d="M0 301v-70h1000v70h-1000z" />
    <glyph glyph-name="quoteleft" unicode="&#x2018;" horiz-adv-x="331" 
d="M130 228l72 0.000976562c8.66699 0 15.667 0.166992 21 0.5s9.5 1.66602 12.5 3.99902s5 6 6 11s1.5 12.167 1.5 21.5v62c0 12.667 -1.5 22 -4.5 28s-9.5 9 -19.5 9h-17h-40l85 152h-59l-99 -148v-103c0 -12.667 1.5 -22 4.5 -28s9.5 -9 19.5 -9h17z" />
    <glyph glyph-name="quoteright" unicode="&#x2019;" horiz-adv-x="331" 
d="M201 516l-72 -0.000976562c-8.66699 0 -15.667 -0.166992 -21 -0.5s-9.5 -1.66602 -12.5 -3.99902s-5 -6 -6 -11s-1.5 -12.167 -1.5 -21.5v-62c0 -12.667 1.5 -22 4.5 -28s9.5 -9 19.5 -9h17h40l-85 -152h59l99 148v103c0 12.667 -1.5 22 -4.5 28s-9.5 9 -19.5 9h-17z
" />
    <glyph glyph-name="quotesinglbase" unicode="&#x201a;" horiz-adv-x="331" 
d="M201 155l-72 -0.000976562c-8.66699 0 -15.667 -0.166992 -21 -0.5s-9.5 -1.66602 -12.5 -3.99902s-5 -6 -6 -11s-1.5 -12.167 -1.5 -21.5v-62c0 -12.667 1.5 -22 4.5 -28s9.5 -9 19.5 -9h17h40l-85 -152h59l99 148v103c0 12.667 -1.5 22 -4.5 28s-9.5 9 -19.5 9h-17z
" />
    <glyph glyph-name="quotedblleft" unicode="&#x201c;" horiz-adv-x="579" 
d="M130 228l72 0.000976562c8.66699 0 15.667 0.166992 21 0.5s9.5 1.66602 12.5 3.99902s5 6 6 11s1.5 12.167 1.5 21.5v62c0 12.667 -1.5 22 -4.5 28s-9.5 9 -19.5 9h-17h-40l85 152h-59l-99 -148v-103c0 -12.667 1.5 -22 4.5 -28s9.5 -9 19.5 -9h17zM378 228.001
l71 0.000976562c8.66699 0 15.667 0.166992 21 0.5s9.5 1.66602 12.5 3.99902s5.16699 6 6.5 11s2 12.167 2 21.5v62c0 12.667 -1.5 22 -4.5 28s-9.5 9 -19.5 9h-18h-39l85 152h-60l-99 -148v-103c0 -12.667 1.66699 -22 5 -28s10 -9 20 -9h17z" />
    <glyph glyph-name="quotedblright" unicode="&#x201d;" horiz-adv-x="579" 
d="M201 516l-72 -0.000976562c-8.66699 0 -15.667 -0.166992 -21 -0.5s-9.5 -1.66602 -12.5 -3.99902s-5 -6 -6 -11s-1.5 -12.167 -1.5 -21.5v-62c0 -12.667 1.5 -22 4.5 -28s9.5 -9 19.5 -9h17h40l-85 -152h59l99 148v103c0 12.667 -1.5 22 -4.5 28s-9.5 9 -19.5 9h-17z
M448 515.999l-71 -0.000976562c-8.66699 0 -15.667 -0.166992 -21 -0.5s-9.5 -1.66602 -12.5 -3.99902s-5.16699 -6 -6.5 -11s-2 -12.167 -2 -21.5v-62c0 -12.667 1.66699 -22 5 -28s10 -9 20 -9h17h39l-85 -152h60l99 148v103c0 12.667 -1.5 22 -4.5 28s-9.5 9 -19.5 9h-18
z" />
    <glyph glyph-name="quotedblbase" unicode="&#x201e;" horiz-adv-x="579" 
d="M201 155l-72 -0.000976562c-8.66699 0 -15.667 -0.166992 -21 -0.5s-9.5 -1.66602 -12.5 -3.99902s-5 -6 -6 -11s-1.5 -12.167 -1.5 -21.5v-62c0 -12.667 1.5 -22 4.5 -28s9.5 -9 19.5 -9h17h40l-85 -152h59l99 148v103c0 12.667 -1.5 22 -4.5 28s-9.5 9 -19.5 9h-17z
M448 154.999l-71 -0.000976562c-8.66699 0 -15.667 -0.166992 -21 -0.5s-9.5 -1.66602 -12.5 -3.99902s-5.16699 -6 -6.5 -11s-2 -12.167 -2 -21.5v-62c0 -12.667 1.66699 -22 5 -28s10 -9 20 -9h17h39l-85 -152h60l99 148v103c0 12.667 -1.5 22 -4.5 28s-9.5 9 -19.5 9h-18
z" />
    <glyph glyph-name="dagger" unicode="&#x2020;" 
d="M236 -106h26.998c2.66699 56.667 7.5 109.334 14.5 158.001s15.833 93 26.5 133c-8.66699 21.333 -16.334 42.833 -23.001 64.5s-12.667 44.167 -18 67.5l165 -37v106l-165 -35l41 165h-108l40 -165l-165 35v-106l165 37c-5.33301 -23.333 -11.166 -45.833 -17.499 -67.5
s-13.833 -43.167 -22.5 -64.5c10.667 -40 19.334 -84.333 26.001 -133s11.334 -101.334 14.001 -158.001z" />
    <glyph glyph-name="daggerdbl" unicode="&#x2021;" 
d="M304 208l-41 109l165 -37v106l-165 -35l41 165h-108l40 -165l-165 35v-106l165 37l-40 -109l40 -109l-165 38v-106l165 34l-40 -165h108l-41 165l165 -34v106l-165 -38z" />
    <glyph glyph-name="bullet" unicode="&#x2022;" horiz-adv-x="590" 
d="M150 372c0 -20 3.66699 -38.832 11 -56.499s17.5 -33 30.5 -46s28.333 -23.333 46 -31s36.5 -11.5 56.5 -11.5s38.833 3.83301 56.5 11.5s33 18.167 46 31.5s23.333 28.666 31 45.999s11.5 36 11.5 56s-3.83301 38.667 -11.5 56s-18 32.5 -31 45.5
s-28.167 23.333 -45.5 31s-36 11.5 -56 11.5s-38.833 -3.83301 -56.5 -11.5s-33 -18 -46 -31s-23.333 -28.167 -31 -45.5s-11.5 -36 -11.5 -56z" />
    <glyph glyph-name="ellipsis" unicode="&#x2026;" horiz-adv-x="1000" 
d="M202 155h-71c-8.66699 0 -15.667 -0.166992 -21 -0.5s-9.5 -1.66602 -12.5 -3.99902s-5.16699 -6 -6.5 -11s-2 -12.167 -2 -21.5v-81c0 -12.667 1.5 -22 4.5 -28s9.5 -9 19.5 -9h18h71c8.66699 0 15.667 0.166992 21 0.5s9.5 1.66602 12.5 3.99902s5.16699 6 6.5 11
s2 12.167 2 21.5v81c0 12.667 -1.5 22 -4.5 28s-9.5 9 -19.5 9h-18zM535 155h-71c-8.66699 0 -15.667 -0.166992 -21 -0.5s-9.5 -1.66602 -12.5 -3.99902s-5.16699 -6 -6.5 -11s-2 -12.167 -2 -21.5v-81c0 -12.667 1.5 -22 4.5 -28s9.5 -9 19.5 -9h18h71
c8.66699 0 15.667 0.166992 21 0.5s9.5 1.66602 12.5 3.99902s5.16699 6 6.5 11s2 12.167 2 21.5v81c0 12.667 -1.5 22 -4.5 28s-9.5 9 -19.5 9h-18zM869 155h-71c-8.66699 0 -15.667 -0.166992 -21 -0.5s-9.5 -1.66602 -12.5 -3.99902s-5.16699 -6 -6.5 -11
s-2 -12.167 -2 -21.5v-81c0 -12.667 1.5 -22 4.5 -28s9.5 -9 19.5 -9h18h71c8.66699 0 15.667 0.166992 21 0.5s9.5 1.66602 12.5 3.99902s5.16699 6 6.5 11s2 12.167 2 21.5v81c0 12.667 -1.5 22 -4.5 28s-9.5 9 -19.5 9h-18z" />
    <glyph glyph-name="perthousand" unicode="&#x2030;" horiz-adv-x="1160" 
d="M44 380c0 -21.333 4.16699 -41.3301 12.5 -59.9971s19.5 -35 33.5 -49s30.333 -25.167 49 -33.5s38.334 -12.5 59.001 -12.5s40.167 4.16699 58.5 12.5s34.5 19.5 48.5 33.5s25.167 30.333 33.5 49s12.5 38.667 12.5 60s-4 41.166 -12 59.499s-18.833 34.333 -32.5 48
s-29.834 24.5 -48.501 32.5s-38.667 12 -60 12s-41.333 -3.83301 -60 -11.5s-35 -18.334 -49 -32.001s-25 -29.834 -33 -48.501s-12 -38.667 -12 -60zM112 378.003c0 23.333 8.33203 43.501 24.999 60.501s36.667 25.5 60 25.5c12 0 23.167 -2.33301 33.5 -7
s19.333 -10.834 27 -18.501s13.834 -16.667 18.501 -27s7 -21.5 7 -33.5c0 -23.333 -8.33301 -43.333 -25 -60s-37 -25 -61 -25c-12 0 -23.167 2.33301 -33.5 7s-19.333 10.834 -27 18.501s-13.667 16.667 -18 27s-6.5 21.166 -6.5 32.499zM648.999 532.004h-65l-435 -548
h65zM446.999 138.004c0 -21.333 3.99902 -41.333 11.999 -60s19 -35 33 -49s30.333 -25 49 -33s38.334 -12 59.001 -12s40.334 4 59.001 12s35 19 49 33s25.167 30.333 33.5 49s12.5 38.667 12.5 60s-4 41.333 -12 60s-19 34.834 -33 48.501s-30.333 24.5 -49 32.5
s-38.667 12 -60 12s-41.333 -4 -60 -12s-34.834 -18.833 -48.501 -32.5s-24.5 -29.834 -32.5 -48.501s-12 -38.667 -12 -60zM514.998 137.004c0 23.333 8.33203 43.501 24.999 60.501s36.667 25.5 60 25.5c12 0 23.167 -2.33301 33.5 -7s19.333 -10.834 27 -18.501
s13.834 -16.667 18.501 -27s7 -21.5 7 -33.5c0 -23.333 -8.33301 -43.333 -25 -60s-37 -25 -61 -25c-12 0 -23.167 2.33301 -33.5 7s-19.333 10.834 -27 18.501s-13.667 16.667 -18 27s-6.5 21.166 -6.5 32.499zM807.997 138.005c0 -21.333 4.16699 -41.333 12.5 -60
s19.5 -35 33.5 -49s30.333 -25 49 -33s38.334 -12 59.001 -12s40.167 4 58.5 12s34.5 19 48.5 33s25.167 30.333 33.5 49s12.5 38.667 12.5 60s-4 41.333 -12 60s-18.833 34.834 -32.5 48.501s-29.834 24.5 -48.501 32.5s-38.667 12 -60 12s-41.333 -4 -60 -12
s-35 -18.833 -49 -32.5s-25 -29.834 -33 -48.501s-12 -38.667 -12 -60zM875.997 137.005c0 23.333 8.33203 43.501 24.999 60.501s36.667 25.5 60 25.5c12 0 23.167 -2.33301 33.5 -7s19.333 -10.834 27 -18.501s13.834 -16.667 18.501 -27s7 -21.5 7 -33.5
c0 -23.333 -8.33301 -43.333 -25 -60s-37 -25 -61 -25c-12 0 -23.167 2.33301 -33.5 7s-19.333 10.834 -27 18.501s-13.667 16.667 -18 27s-6.5 21.166 -6.5 32.499z" />
    <glyph glyph-name="guilsinglleft" unicode="&#x2039;" horiz-adv-x="331" 
d="M269 64l-114 148l114 147h-89l-118 -147l118 -148h89z" />
    <glyph glyph-name="guilsinglright" unicode="&#x203a;" horiz-adv-x="331" 
d="M62 359l114 -147l-114 -148h89l118 148l-118 147h-89z" />
    <glyph glyph-name="trademark" unicode="&#x2122;" horiz-adv-x="833" 
d="M339 712h-221v-39h84v-224h53v224h84v39zM470 712h-73v-263h48v217l85 -217h27l81 217v-217h48v263h-73l-69 -188z" />
    <glyph glyph-name=".null" horiz-adv-x="0" 
 />
    <glyph glyph-name="nonmarkingreturn" horiz-adv-x="387" 
 />
  </font>
</defs>
</svg>
